/* XPM */
static char *_6005f9b51e14f938b58452e8bbdfd92Bqo2BWeIjTJfuXAn[] = {
/* columns rows colors chars-per-pixel */
"64 64 9 1 ",
"  c #090A14",
". c #241526",
"X c #341C27",
"o c #4D2B32",
"O c #7A4841",
"+ c #AD7757",
"@ c #33A50C",
"# c #4CB328",
"$ c #42FE00",
/* pixels */
"#######$$######$$$$$$#########$##$#######$$########$########$###",
"#################$$$#$############$##$#####$###$##$###########$#",
"#$###$##$#######$#####$#$##########$##$###$####$################",
"####@#########$############@###$#$################$##$#$$#######",
"$#$############$#$#@#####$######$###########$####$###########$##",
"######$###########$$$$###########$##########@###################",
"########$#######$########$###$########$##$#####$$######@########",
"#########@#######$#$######################$###$##$##$###$#######",
"$########$###$##$##$###$#$###$###$############$####$###$######$#",
"##################################$###############$########$####",
"#$########$###########$#@############@#$##$######$##########$###",
"$#$#@########$####$##############$#########$##############$####$",
"#######$########$####$##$#########$#####$####$#####$#######$####",
"###########$###@###$#############$################@#########$###",
"##$#$###########$####$######$$####$##$#######$###########$###$##",
"############$################$$#########$#####$$####$##$########",
"$#$###$#####$###############$#########$###########$$####$######$",
"######$#######$###########$#$##$####$#$$##$###$#####$#####@#$#$#",
"###$###$#####oooooooo#####################@#####$$#$######$#####",
"#####$$@$##ooooooooooooo@###########$##$#$#####$################",
"###$#$####oooooooooooooo++++#####$##########++++++++++#########$",
"########ooooooOOOoooooooo++++++++#########+++OO++OOO+++$$#######",
"####$#$ooooooooOOOooooooo+o++O+++++++###+++++++oX+O+OO+O+#######",
"######oooooOOOOooOOOooooooooOO+OOO+++++++++++++oX+OOOOO+++#####$",
"$####ooooooooOOOOOOOOOooooooOOOO++++++++++++++++oXOOOOOOOO++####",
"####@ooooooooOOOOooOOOooooooooO++OOOO++++++++O+++oOO...OOooXXo$#",
"####oooooOooooOOooOOOooooooooooOOOOO++OO++++O++OOOOOOOOOoooX   #",
"####ooooooOOOOOOOOOOOOOOOoooOOoOOOOO+OO++OOOO++OOOOOOooOooXXX X#",
"###ooooooOOOOOOOOOOOOOOOOooooOOOOOOOOOO+++OOOO++OOOOOOoooXXXX.X#",
"#$#oooooOOOOoooOOOooOOOooooooOOOOOOOOOOO+OOOOOOOOOOOOOoooXXXX.X#",
"##oooooooooooOOOOooOOOOoOoooOOOOOOOOOOOO+OOOOOOOOOOOoOOooXXXX.X#",
"##ooooooooooOOOOOOOOOOOOOooOOoOOOOOOOOOOOOOOOOOOOOOOooooXXX...X#",
"#oooXXoooooOOOOOOOOOOOOOooooooOOOOOOOOOOOOOOOOOOooOoooXXXXXXXX#$",
"#XoXXoooooOOOoOOOOoOOOOOOOooOOOOOOOOOOOOOOOOOOOOOooXXXXXXXXXX###",
"$XXXooooooOOoOOOOooOOOooOoooooOOOOOOOOOOOOOOOoOooXXXX###########",
"#XXXoXXooooooOOOooOOOOOooooooOOOOOOOOOOOOOOOOoooXX######$#######",
"##XXXXXooooooOOOOOOOOOOOOooooOOOOOOOOOOOOOOoOOooX########$######",
"###XXXXoXXooOOOOOOOOOOOOoooOOOoOOOOOOOOOOoOOoooo#####$##########",
"$###XXoXXooOOOoOooOooOOooXoOoooOOOOOOOoOOooOooo#################",
"#$$##XXXXoOOOooooOOooOooXXooooOOOoOOOOooOOoooo##################",
"#####XXXXooooooooOOoooooXXoXooOoooOOOOOoOOoo##############$#####",
"######XXXooooooooOooXooXXXXXoooooOOooOooooo#$######$$####@$###$#",
"######XXXXooXooXoooXXXXXXXXXXoXooooooOoooo############$####$#$##",
"####$##XXXoXXooXXXXXXXX###XXXXXXXXooooooo#####$#$###############",
"#######..XXXooXXX##$############XXXooo..####$#######$####$$####$",
"####@###.XXXoXXX$################.XXoo.#########################",
"#######$.XXXXXX####$#############..XX..####$##############$#####",
"#$######..XX..#$#################..XX.###$######################",
"########...X.########$###@#####$##..X.######$#############$###$#",
"########...X.#$###################....########################$#",
"##$######....#####################....###$#####@###$############",
"#########.....$####$############$$#....$########################",
"#######$##.....#######$$############....#$#####$####$#$##$#$##$#",
"#$#########....############$#########...#############$#$########",
"#####$###$###################$##################################",
"$##$#####$#####$##$$###################$####$###$###############",
"###########$#####$###########$$################################$",
"#$$################@###########$#######$#################$#$#$##",
"###$#######$$##$########$###$$##$###############################",
"####$#####$#########$###########$$###@#$$$$##########$#####@####",
"#$##@#$########################$###############$###$############",
"#######$###############$###############$##$########$######$#####",
"$##$###$#######$$#####################$$$#########$##$###$######",
"########$######$$$#####################$################$$####$#"
};
