/* XPM */
static char *_9a44dc5fba343b59a34a1b9fab56bf4O5dfjhAAv8hnyT8Y[] = {
/* columns rows colors chars-per-pixel */
"64 64 9 1 ",
"  c #090A14",
". c #241527",
"X c #341C26",
"o c #4D2B32",
"O c #7A4841",
"+ c #AD7757",
"@ c #33A50C",
"# c #4CB328",
"$ c #42FE00",
/* pixels */
"#######$$######$$$$$$#########$##$#######$$########$########$###",
"#################$$$#$############$##$#####$###$##$###########$#",
"#$###$##$#######$#####$#$##########$##$###$####$################",
"####@#########$############@###$#$################$##$#$$#######",
"$#$############$#$#@#####$######$###########$####$###########$##",
"######$###########$$$$###########$##########@###################",
"########$#######$########$###$########$##$#####$$######@########",
"#########@#######$#$######################$###$##$##$###$#######",
"$########$###$##$##$###$#$###$###$############$####$###$######$#",
"##################################$###############$########$####",
"#$########$###########$#@############@#$##$######$##########$###",
"$#$#@########$####$##############$#########$##############$####$",
"#######$########$####$##$#########$#####$####$#####$#######$####",
"###########$###@###$#############$################@#########$###",
"##$#$###########$####$######$$####$##$#######$###########$###$##",
"############$################$$#########$#####$$####$##$########",
"$#$###$#####$###############$#########$###########$$####$######$",
"######$#######$###########$#$##$####$#$$##$###$#####$#####@#$#$#",
"###$###$##################################@oooooooo$######$#####",
"#####$$@$##$######$#####@###########$##$ooooooooooooo###########",
"###$#$####++++++++++#############$##++++oooooooooooooo#########$",
"#########+++OOO++OO+++#$#######++++++++ooooooooOOOoooooo$#######",
"####$#$+O+OO+O+Xo+++++++###+++++++O++o+oooooooOOOoooooooo#######",
"######+++OOOOO+Xo+++++++++++++OOO+OOooooooooOOOooOOOOooooo#####$",
"$###++OOOOOOOOXo++++++++++++++++OOOOooooooOOOOOOOOOoooooooo#####",
"##oXXooOO...OOo+++O++++++++OOOO++OooooooooOOOooOOOOoooooooo###$#",
"#   XoooOOOOOOOOO++O++++OO++OOOOOooooooooooOOOooOOooooOooooo####",
"#X XXXooOooOOOOOO++OOOO++OO+OOOOOoOOoooOOOOOOOOOOOOOOOoooooo####",
"#X.XXXXoooOOOOOO++OOOO+++OOOOOOOOOOooooOOOOOOOOOOOOOOOOoooooo###",
"#X.XXXXoooOOOOOOOOOOOOO+OOOOOOOOOOOooooooOOOooOOOoooOOOOooooo###",
"#X.XXXXooOOoOOOOOOOOOOO+OOOOOOOOOOOOoooOoOOOOooOOOOooooooooooo##",
"#X...XXXooooOOOOOOOOOOOOOOOOOOOOOOoOOooOOOOOOOOOOOOOoooooooooo##",
"#$XXXXXXXXoooOooOOOOOOOOOOOOOOOOOOooooooOOOOOOOOOOOOOoooooXXooo$",
"###XXXXXXXXXXooOOOOOOOOOOOOOOOOOOOOOooOOOOOOOoOOOOoOOOoooooXXoX#",
"$@#####$#@#XXXXooOoOOOOOOOOOOOOOOOoooooOooOOOooOOOOoOOooooooXXX#",
"#$##########$#XXoooOOOOOOOOOOOOOOOOooooooOOOOOooOOOooooooXXoXXX#",
"####$#$#######$XooOOoOOOOOOOOOOOOOOooooOOOOOOOOOOOOooooooXXXXX##",
"#####$##$#######ooooOOoOOOOOOOOOOoOOOoooOOOOOOOOOOOOooXXoXXXX###",
"$#########$#$$###oooOooOOoOOOOOOOoooOoXooOOooOooOoOOOooXXoXX####",
"#$$#####$#########ooooOOooOOOOoOOOooooXXooOooOOooooOOOoXXXX#####",
"##########$###$#####ooOOoOOOOOoooOooXoXXoooooOOooooooooXXXX#####",
"################@##$#oooooOooOOoooooXXXXXooXooOooooooooXXX$###$#",
"#################$##$#ooooOooooooXoXXXXXXXXXXoooXooXooXXXX#$#$##",
"####$##################oooooooXXXXXXXX##$XXXXXXXXooXXoXXX#######",
"########$#$$#######$####..oooXXX############$##XXXooXXX..$$####$",
"####@###########$########.ooXX.#################XXXoXXX.########",
"#######$###########$#####..XX..##$$########$#####XXXXXX.##$#####",
"#$#############$##########.XX..##########$########..XX..########",
"##########$##########$###@.X..#$##$$#$######$######.X...##$###$#",
"##############$###########....#####################.X...######$#",
"##$#######################....####$######$#####@###....#########",
"##########@##$$####$#####....###$$##$##$##########.....#########",
"#######$####$#########$$....#############$#####$#.....$##$#$##$#",
"#$######################...$#####################....$#$########",
"#####$###$###################$##################################",
"$##$#####$#####$##$$###################$####$###$###############",
"###########$#####$###########$$################################$",
"#$$################@###########$#######$#################$#$#$##",
"###$#######$$##$########$###$$##$###############################",
"####$#####$#########$###########$$###@#$$$$##########$#####@####",
"#$##@#$########################$###############$###$############",
"#######$###############$###############$##$########$######$#####",
"$##$###$#######$$#####################$$$#########$##$###$######",
"########$######$$$#####################$################$$####$#"
};
