/* XPM */
static char *ebc8acbab5cb4ca69a671a6fb3281e95q0JAkUZsNOooZBov[] = {
/* columns rows colors chars-per-pixel */
"64 64 186 2 ",
"   c #020201",
".  c #050706",
"X  c #090302",
"o  c #080609",
"O  c #0B0C0C",
"+  c #0B1407",
"@  c #0D1B06",
"#  c #0A1409",
"$  c #12110F",
"%  c #171C16",
"&  c #1B1A17",
"*  c #390E00",
"=  c #27170B",
"-  c #072308",
";  c #12260E",
":  c #0F2E10",
">  c #172818",
",  c #1E301B",
"<  c #1A3C1E",
"1  c #35390B",
"2  c #202212",
"3  c #1E3E23",
"4  c #263D28",
"5  c #4C210F",
"6  c #472012",
"7  c #482113",
"8  c #612109",
"9  c #74320E",
"0  c #7D3318",
"q  c #24421C",
"w  c #1B4623",
"e  c #174A21",
"r  c #1F4E26",
"t  c #1C5726",
"y  c #1E552E",
"u  c #1F5A2B",
"i  c #1E5430",
"p  c #254225",
"a  c #224D25",
"s  c #2A4A27",
"d  c #24432B",
"f  c #2A452C",
"g  c #234A2A",
"h  c #24572D",
"j  c #2C512D",
"k  c #36582C",
"l  c #234331",
"z  c #2A4A31",
"x  c #2A5233",
"c  c #2D5B33",
"v  c #295A36",
"b  c #305635",
"n  c #345B35",
"m  c #345E3A",
"M  c #22602E",
"N  c #296132",
"B  c #2D6539",
"V  c #34633B",
"C  c #3C613F",
"Z  c #346D3D",
"A  c #3A6E3E",
"S  c #2D753D",
"D  c #2B783D",
"F  c #32753C",
"G  c #3A713E",
"H  c #32783B",
"J  c #404517",
"K  c #5F4829",
"L  c #485927",
"P  c #585D28",
"I  c #4D6F29",
"U  c #526E2E",
"Y  c #486D3A",
"T  c #46743B",
"R  c #737D21",
"E  c #647C3D",
"W  c #3C6E42",
"Q  c #377143",
"!  c #3B7142",
"~  c #3E7B49",
"^  c #55534E",
"/  c #406E46",
"(  c #416E48",
")  c #45724C",
"_  c #407D49",
"`  c #903713",
"'  c #A23D13",
"]  c #AF471B",
"[  c #B34717",
"{  c #B24817",
"}  c #B4461A",
"|  c #B5481C",
" . c #814029",
".. c #954122",
"X. c #905224",
"o. c #A54420",
"O. c #33A40C",
"+. c #2C803D",
"@. c #5A913B",
"#. c #66832D",
"$. c #758B23",
"%. c #66953A",
"&. c #4CB328",
"*. c #61A73D",
"=. c #42FF00",
"-. c #2B8242",
";. c #3A8446",
":. c #398D45",
">. c #3C8449",
",. c #378B48",
"<. c #398E4C",
"1. c #3A924B",
"2. c #3B9B4E",
"3. c #3F9054",
"4. c #3E9D52",
"5. c #3DA74F",
"6. c #3EA554",
"7. c #3BA852",
"8. c #3DA65A",
"9. c #5D8041",
"0. c #44984D",
"q. c #418F55",
"w. c #429553",
"e. c #439E55",
"r. c #4A955A",
"t. c #4A9A5B",
"y. c #549B50",
"u. c #6B8043",
"i. c #7D8E40",
"p. c #5AA94A",
"a. c #42A456",
"s. c #4BAB55",
"d. c #43A359",
"f. c #63AB4B",
"g. c #6BB14C",
"h. c #79B647",
"j. c #6EB554",
"k. c #7CBE52",
"l. c #69B775",
"z. c #838E26",
"x. c #81922B",
"c. c #8E9B2D",
"v. c #969E28",
"b. c #889439",
"n. c #9FB121",
"m. c #9BAD32",
"M. c #9EB63A",
"N. c #A1A82F",
"B. c #A8B82C",
"V. c #ACBA2E",
"C. c #B8BC2C",
"Z. c #A5A434",
"A. c #A5B237",
"S. c #ACBA32",
"D. c #AAB83B",
"F. c #BDBB31",
"G. c #B3C12F",
"H. c #BDC52D",
"J. c #B3C031",
"K. c #BBC430",
"L. c #C8CB2D",
"P. c #C4CD34",
"I. c #CCD33E",
"U. c #D0D735",
"Y. c #D7DF3C",
"T. c #D4E034",
"R. c #D7E03A",
"E. c #ECF13F",
"W. c #F4F83E",
"Q. c #879A48",
"!. c #839F53",
"~. c #BFC640",
"^. c #D6D544",
"/. c #DEEA48",
"(. c #E5EC41",
"). c #EDF040",
"_. c #EEF249",
"`. c #F5F744",
"'. c #FAF340",
"]. c #F3F944",
"[. c #F5F648",
"{. c #F0F65A",
"}. c #C9CF64",
"|. c #F0F660",
" X c #FAFEFD",
".X c #FFFFFF",
/* pixels */
"&.&.&.&.&.&.&.=.=.&.&.&.&.&.&.=.=.=.=.=.=.&.&.&.&.&.&.&.&.&.=.&.&.=.&.&.&.&.&.&.&.=.=.&.&.&.&.&.&.&.&.=.&.&.&.&.&.&.&.&.=.&.&.&.",
"&.&.&.&.&.&.&.&.&.&.&.&.&.&.&.&.&.=.=.=.&.=.&.&.&.&.&.&.&.&.&.&.&.&.=.&.&.=.&.&.&.&.&.=.&.&.&.=.&.&.=.&.&.&.&.&.&.&.&.&.&.&.=.&.",
"&.=.&.&.&.=.&.&.=.&.&.&.&.&.&.&.=.&.&.&.&.&.=.&.=.&.&.&.&.&.&.&.&.&.&.=.&.&.=.&.&.&.=.&.&.&.&.=.&.&.&.&.&.&.&.&.&.&.&.&.&.&.&.&.",
"&.&.&.&.O.&.&.&.&.&.&.&.&.&.=.&.&.&.&.&.&.&.&.&.&.&.&.O.&.&.&.=.&.=.&.&.&.&.&.&.&.&.&.&.&.&.&.&.&.&.=.&.&.=.&.=.=.&.&.&.&.&.&.&.",
"=.&.=.&.&.&.&.&.&.&.&.&.&.&.&.=.&.=.&.O.&.&.&.&.&.=.&.&.&.&.&.&.=.&.&.&.&.&.&.&.&.&.&.&.=.&.&.&.&.=.&.&.&.&.&.&.&.&.&.&.&.=.&.&.",
"&.&.&.&.&.&.=.&.&.&.&.&.&.&.&.&.&.&.=.=.=.=.&.&.&.&.&.&.&.&.&.&.&.=.&.&.&.&.&.&.&.&.&.&.O.&.&.&.&.&.&.&.&.&.&.&.&.&.&.&.&.&.&.&.",
"&.&.&.&.&.&.&.&.=.&.&.&.&.&.&.&.=.&.&.&.&.&.&.&.&.=.&.&.&.=.&.&.&.&.&.&.&.&.=.&.&.=.&.&.&.&.&.=.=.&.&.&.&.&.&.O.&.&.&.&.&.&.&.&.",
"&.&.&.&.&.&.&.&.&.O.&.&.&.&.&.&.&.=.&.=.&.&.&.&.&.&.&.&.&.&.&.&.&.&.&.&.&.&.&.&.&.&.=.&.&.&.=.&.&.=.&.&.=.&.&.&.=.&.&.&.&.&.&.&.",
"=.&.&.&.&.&.&.&.&.=.&.&.&.=.&.&.=.&.&.=.&.&.&.=.&.=.&.&.&.=.&.&.&.=.&.&.&.&.&.&.&.&.&.&.&.&.=.&.&.&.&.=.&.&.&.=.&.&.&.&.&.&.=.&.",
"&.&.&.&.&.&.&.&.&.&.&.&.&.&.&.&.&.&.&.&.&.&.&.&.&.&.&.&.&.&.&.&.&.&.=.&.&.&.&.&.&.&.&.&.&.&.&.&.&.&.=.&.&.&.&.&.&.&.&.=.&.&.&.&.",
"&.=.&.&.&.&.&.&.&.&.=.&.&.&.&.&.&.&.&.&.&.&.=.&.O.&.&.&.&.&.&.&.&.&.&.&.&.O.&.=.&.&.=.&.&.&.&.&.&.=.&.&.&.&.&.&.&.&.&.&.=.&.&.&.",
"=.&.=.&.O.&.&.&.&.&.&.&.&.=.&.&.&.&.=.&.&.&.&.&.&.&.&.                &.&.&.&.&.&.&.&.=.&.&.&.&.&.&.&.&.&.&.&.&.&.&.=.&.&.&.&.=.",
"&.&.&.&.&.&.&.=.&.&.&.&.&.&.&.&.=.&.&.&.&.=.&.X X X   >.a.a.a.a.a.a.W % X ^ &.&.=.&.&.&.&.=.&.&.&.&.&.=.&.&.&.&.&.&.&.=.&.&.&.&.",
"&.&.&.&.&.&.&.&.&.&.&.=.&.&.&.O.&.&.&.=.      F 6.6.6.a.a.a.a.a.a.a.6.a.;.  X   &.&.&.&.&.&.&.&.&.&.O.&.&.&.&.&.&.&.&.&.=.&.&.&.",
"&.&.=.&.=.&.&.&.&.&.&.&.&.&.&.&.=.&.&.& q.3.w.e.a.a.a.a.a.a.a.a.a.a.a.a.e   C C   &.&.&.&.=.&.&.&.&.&.&.&.&.&.&.&.=.&.&.&.=.&.&.",
"&.&.&.&.&.&.&.&.&.&.&.&.=.&.&.&.&.&.&.  a.a.a.a.a.a.a.e.1.D a.a.a.a.a.a.h   j W ;   &.&.&.&.=.=.&.&.&.&.=.&.&.=.&.&.&.&.&.&.&.&.",
"=.&.=.&.&.&.=.&.&.&.&.&.=.&.&.&.&.&.% a.a.1.<.1.a.a.a.w.W   4.a.a.a.a.a.a.S > c ! j   &.&.&.&.&.&.&.=.=.&.&.&.&.=.&.&.&.&.&.&.=.",
"&.&.&.&.&.&.=.&.&.&.&.&.&.&.=.&.&.  G a.a.x d w a.a.a.a.l. XG e.a.a.a.a.a.a.8.  ( j   &.&.&.=.&.&.&.&.&.=.&.&.&.&.&.O.&.=.&.=.&.",
"&.&.&.=.&.&.&.=.&.&.&.&.&.&.&.&.  a a.a.d I.W.].V.l D ;.b 5.a.a.a.a.a.a.a.a.a.X ) j   &.&.&.&.&.=.=.&.=.&.&.&.&.&.&.=.&.&.&.&.&.",
"&.&.&.&.&.=.=.O.=.&.&.=.&.&.&.&.X r 6.a _.[.[.`.W.D.E V <.p 6.a.a.a.Q 2.a.1.G X / j   &.&.&.&.=.&.&.&.&.&.&.&.&.&.&.&.&.&.&.&.&.",
"&.&.&.=.&.=.&.&.&.&.&.&.&.&.&.&.  r 4.l [.[.`.`.[.C.u.B ,.4 r.a.a.a.H 2.a.1.H   / j   &.=.&.&.&.&.=.=.&.&.&.&.&.&.&.&.&.&.&.&.=.",
"&.&.&.&.&.&.&.&.&.&.&.=.&.&.&.=.  r 4.l [.`.`.[.[.].Q.B -.X X t.6.7.7.7.7.6.7.o ) j   &.&.&.&.&.&.&.&.&.&.&.&.=.=.&.&.&.&.&.&.&.",
"&.&.&.&.=.&.=.&.&.&.&.&.&.&.&.&.  a e.l [.[.[.[.[.[.].D.v 6.   X.X      .X.X  i.A j   &.&.&.=.&.&.&.&.&.&.&.&.&.&.&.&.&.&.&.&.&.",
"&.&.&.&.&.&.&.&.&.&.&.&.&.&.&.&.  a a.4.k ^.[.[.[.[.[.D.v a.  & &   o.= $ $   T )   &.&.&.&.&.&.&.&.&.&.=.&.&.&.&.&.&.&.&.&.&.=.",
"=.&.&.&.&.=.&.&.&.&.&.&.&.&.&.&.&.  g a.d I.[.[.[.`.`.I.#.Z N N N N | 0 = 2 L W )   =.&.&.&.&.&.=.&.&.&.=.&.&.&.&.&.&.&.&.&.&.&.",
"&.&.&.&.O.&.&.&.&.&.&.&.&.O.&.&.=.&.. :.Q x.~.U.U.U.U.P.c.p t t t t 8 ' 0 K 9.<   &.&.&.&.&.&.&.=.&.&.&.=.&.&.&.&.&.&.&.&.&.=.&.",
"&.&.&.&.&.&.&.&.&.&.&.&.&.&.=.&.&.&.o W a.x Q.S.V.V.V.V.v.p           ` | X.Y   &.&.&.&.&.&.&.&.&.&.&.&.&.O.&.&.&.&.&.&.&.&.&.&.",
"&.&.&.&.&.&.&.&.&.&.&.=.&.&.&.&.&.&.&.  a.a.v f `.`.`.`.[.[.S.S.S.S.S.  9 { [   &.=.&.&.&.&.&.&.&.&.&.&.&.&.&.&.=.&.&.&.&.&.&.&.",
"&.&.&.&.&.&.&.&.&.=.&.&.&.&.=.&.&.&.&.&.  N w.e.p ].[.[.[.[.[.].].].  &.  7 [ } X &.&.&.&.&.&.&.&.&.&.&.&.&.&.&.&.&.&.=.&.&.&.&.",
"&.=.&.&.&.=.&.=.&.&.=.&.&.&.&.&.&.&.&.&.&.  _ r.h }./.[.[.[.`.`.[.].  &.  7 [  .*   &.&.&.&.&.&.=.&.=.&.&.&.&.&.&.&.&.&.&.&.&.&.",
"&.&.=.&.&.&.&.=.&.&.&.&.&.&.&.&.&.&.&.&.&.&.  B 6.g x.(.E.E.E.).E.).X &.  6 [   ..9   =.&.&.&.&.&.&.&.=.&.&.&.&.&.&.=.&.&.&.&.&.",
"&.&.&.=.=.&.&.&.&.&.&.&.&.&.&.&.&.&.&.=.&.&.&.. W a.Q U B.S.V.V.S.S.X =.  5 ]         &.&.=.&.&.&.&.&.&.&.&.&.&.&.&.&.&.&.&.&.&.",
"&.=.&.&.=.&.&.&.&.&.&.&.=.&.&.&.&.&.&.&.=.&.&.&.X Q ,.;.Y `.`.].].].. &.&.      &.=.=.&.&.&.&.&.&.&.=.&.&.&.&.&.&.=.&.&.&.&.&.=.",
"&.&.&.&.=.&.&.&.&.&.&.&.&.&.&.&.&.&.&.&.&.&.&.&.O.+ M a.:.k `.[.[.[.Y.  &.&.&.=.&.&.&.&.=.&.&.&.&.&.&.&.&.&.&.&.&.&.&.&.&.&.&.&.",
"=.O.&.&.&.&.&.=.&.O.&.&.=.&.&.&.&.&.&.&.&.&.&.&.&.X u a.,.d K.K.H.H.H.Z.  &.&.&.&.&.=.&.&.&.&.&.&.&.&.&.=.&.&.&.&.&.&.&.&.&.&.&.",
"&.=.&.&.&.&.&.&.&.&.&.&.=.&.=.&.&.&.&.=.&.&.&.&.&.  h a.1.d S.B.S.V.V.V.J   &.&.&.&.&.&.&.&.&.&.&.&.&.&.&.&.&.&.=.&.&.&.&.&.&.&.",
"&.&.&.&.=.&.=.&.&.&.&.&.&.&.=.&.=.&.&.&.&.&.&.&.&.=.  < a.a.d |.[.[.[.`.[.v.  &.&.&.&.&.&.&.O.&.&.&.&.&.&.&.&.&.&.=.&.&.&.&.&.&.",
"&.&.&.&.&.=.&.&.=.&.&.&.&.&.&.&.&.&.=.&.              < a.a.d {.].[.[.[.[.v.  &.&.&.&.&.&.&.&.&.&.&.&.&.&.=.&.&.&.&.&.&.&.&.&.&.",
"=.&.&.&.&.&.&.&.&.&.=.&.=.=.&.&.&.&.    < < < < < <   < 6.6.S !.b.`.`.`.`.L.  =.&.&.&.&.&.&.&.&.&.&.&.&.&.&.&.&.&.&.&.&.&.&.&.&.",
"&.=.=.&.&.&.&.&.=.&.&.&.&.&.&.&.&.  , , W W W W W G   < a.a.a.w q Y.R.Y.Y.Y.Y.o     &.&.=.&.&.&.&.&.&.&.&.&.&.&.&.&.&.&.&.&.&.&.",
"&.&.&.&.&.&.&.&.&.&.=.&.&.&.=.&.# p ! ! W W W W W G   < a.a.a.t a m.J.G.G.G.J.o ( x   &.&.&.&.&.&.&.&.&.&.&.&.&.&.&.=.&.&.&.&.&.",
"&.&.&.&.&.&.&.&.&.&.&.&.&.&.&.  G Q ! ! ! z m W W A   < a.a.a.6.e.d `.`.[.[.`.. / A c X =.&.&.&.&.&.&.=.=.&.&.&.&.O.=.&.&.&.=.&.",
"&.&.&.&.&.&.&.&.&.&.&.&.&.&.  W Q ;.6.6.6.6.:   X X 3 ;.a.a.a.a.a.d ].[.[.[.`.  / W Q /   &.&.&.&.&.&.&.&.&.=.&.&.&.&.=.&.=.&.&.",
"&.&.&.&.=.&.&.&.&.&.&.&.&.&.  Q e.a.a.a.a.a.r.r.t.r.t.e.a.a.a.a.a.d ].[.[.[.].o / W W (   &.=.&.=.&.&.&.&.&.&.&.&.&.&.&.&.&.&.&.",
"&.&.&.&.&.&.&.&.=.&.=.=.&.&.  ! 6.a.a.a.a.a.a.a.a.a.a.a.a.a.a.d.4.d ].[.[.].`.o / W W W o &.&.&.&.&.&.&.=.&.&.&.&.=.=.&.&.&.&.=.",
"&.&.&.&.O.&.&.&.&.&.&.&.&.&.  ! 6.a.a.a.a.a.a.a.a.a.a.a.a.a.a.G A d `.`.`.T.B.o W A Q W !   &.&.&.&.&.&.&.&.&.&.&.&.&.&.&.&.&.&.",
"&.&.&.&.&.&.&.=.&.&.&.&.&.&.  d W ;.a.a.a.a.a.a.a.a.a.a.a.a.a.G G S.V.S.S.$.d A d.6.4.A !       &.&.&.&.&.&.&.&.&.&.=.&.&.&.&.&.",
"&.=.&.&.&.&.&.&.&.&.&.&.&.  c V z V ~ ~ ~ e.a.a.a.a.a.a.a.a.~ g s S.S.V.V.$.d 4.a.6.a.0.!   > c   &.&.&.&.&.&.&.&.&.&.&.&.&.&.&.",
"&.&.&.&.&.&.&.&.&.&.=.&.&.  A W V m x x x c n n n n n n n c ; # + 1 1 L @.y.>.a.a.6.a.d.  f m Q S   &.&.&.&.&.&.&.&.=.&.&.&.=.&.",
"&.&.&.&.&.&.&.&.&.&.&.&.&.  A W W V y y y y y y i y y y y h @         e ,.a.a.a.a.6.a.p.X I T G a.-   &.&.&.&.&.&.&.&.&.&.&.=.&.",
"&.&.=.&.&.&.&.&.&.&.&.&.&.  G W W >.a.a.a.a.a.a.a.a.a.a.a.a.a.a.a.a.a.a.a.a.a.a.a.6.s.V.  n.h.8.a.a.g   &.&.&.&.&.&.&.&.&.&.&.&.",
"&.&.&.&.&.&.&.&.&.&.O.&.&.  S.! 6.a.a.a.a.a.a.a.a.a.a.a.a.a.a.a.a.a.a.a.a.a.a.a.a.*.c.  &.O   '.a.a.g   &.&.&.&.&.&.&.&.&.&.&.&.",
"&.&.&.&.&.&.&.=.&.&.&.&.=.&.  A.M.h.a.a.a.a.a.a.a.a.a.a.a.a.a.a.a.a.a.a.a.a.a.(./.A.  &.&.&.&.= a.a.g   =.&.=.&.&.=.&.=.&.&.=.&.",
"&.=.&.&.&.&.&.&.&.&.&.&.&.&.&.  R %.f.p.k.k.k.k.k.k.j.g.k.k.k.k.k.f.k.k.k.k.k.N.Z.b.  &.&.&.&.X d.S g   &.=.&.=.&.&.&.&.&.&.&.&.",
"&.&.&.&.&.=.&.&.&.=.&.&.&.&.&.&.  P z.z.F.F.F.F.F.F.Z.v.F.F.F.F.F.z.F.F.F.F.F.      &.&.&.&.&.X +.    &.&.&.&.&.&.&.&.&.&.&.&.&.",
"=.&.&.=.&.&.&.&.&.=.&.&.&.&.&.=.&.          X               X               X =.&.&.&.&.=.&.&.    &.&.&.&.&.&.&.&.&.&.&.&.&.&.&.",
"&.&.&.&.&.&.&.&.&.&.&.=.&.&.&.&.&.=.&.&.&.&.&.&.&.&.&.&.&.=.=.&.&.&.&.&.&.&.&.&.&.&.&.&.&.&.&.&.&.&.&.&.&.&.&.&.&.&.&.&.&.&.&.=.",
"&.=.=.&.&.&.&.&.&.&.&.&.&.&.&.&.&.&.&.O.&.&.&.&.&.&.&.&.&.&.&.=.&.&.&.&.&.&.&.=.&.&.&.&.&.&.&.&.&.&.&.&.&.&.&.&.&.=.&.=.&.=.&.&.",
"&.&.&.=.&.&.&.&.&.&.&.=.=.&.&.=.&.&.&.&.&.&.&.&.=.&.&.&.=.=.&.&.=.&.&.&.&.&.&.&.&.&.&.&.&.&.&.&.&.&.&.&.&.&.&.&.&.&.&.&.&.&.&.&.",
"&.&.&.&.=.&.&.&.&.&.=.&.&.&.&.&.&.&.&.&.=.&.&.&.&.&.&.&.&.&.&.&.=.=.&.&.&.O.&.=.=.=.=.&.&.&.&.&.&.&.&.&.&.=.&.&.&.&.&.O.&.&.&.&.",
"&.=.&.&.O.&.=.&.&.&.&.&.&.&.&.&.&.&.&.&.&.&.&.&.&.&.&.&.&.&.&.=.&.&.&.&.&.&.&.&.&.&.&.&.&.&.&.=.&.&.&.=.&.&.&.&.&.&.&.&.&.&.&.&.",
"&.&.&.&.&.&.&.=.&.&.&.&.&.&.&.&.&.&.&.&.&.&.&.=.&.&.&.&.&.&.&.&.&.&.&.&.&.&.&.=.&.&.=.&.&.&.&.&.&.&.&.=.&.&.&.&.&.&.=.&.&.&.&.&.",
"=.&.&.=.&.&.&.=.&.&.&.&.&.&.&.=.=.&.&.&.&.&.&.&.&.&.&.&.&.&.&.&.&.&.&.&.&.&.=.=.=.&.&.&.&.&.&.&.&.&.=.&.&.=.&.&.&.=.&.&.&.&.&.&.",
"&.&.&.&.&.&.&.&.=.&.&.&.&.&.&.=.=.=.&.&.&.&.&.&.&.&.&.&.&.&.&.&.&.&.&.&.&.&.&.=.&.&.&.&.&.&.&.&.&.&.&.&.&.&.&.&.=.=.&.&.&.&.=.&."
};
