/* XPM */
static char *a45667a0521d4c3ece2b14f8f86eface84AVNFALbL5EsSO8[] = {
/* columns rows colors chars-per-pixel */
"64 64 114 2 ",
"   c black",
".  c #150E2F",
"X  c #1E1433",
"o  c #22183B",
"O  c #22183C",
"+  c #24193F",
"@  c #271A45",
"#  c #291E46",
"$  c #291E49",
"%  c #2C1F48",
"&  c #2C214A",
"*  c #2D3979",
"=  c #2C3C7D",
"-  c #33A50C",
";  c #4CB328",
":  c #42FE00",
">  c #FFE802",
",  c #FFEF00",
"<  c #F9E11E",
"1  c #F5C73A",
"2  c #D2867F",
"3  c #EBA762",
"4  c #EFAC66",
"5  c #2D438A",
"6  c #334C8A",
"7  c #354E8E",
"8  c #3E5B8F",
"9  c #374F90",
"0  c #365390",
"q  c #335493",
"w  c #365295",
"e  c #355797",
"r  c #385494",
"t  c #3B5892",
"y  c #3C5B95",
"u  c #3D5D94",
"i  c #36579B",
"p  c #35579D",
"a  c #37589B",
"s  c #335A9E",
"d  c #365B9E",
"f  c #3F6094",
"g  c #395EA2",
"h  c #3A5DA8",
"j  c #3B63A3",
"k  c #3E61A2",
"l  c #3962A4",
"z  c #3E63A5",
"x  c #3B64A5",
"c  c #3C64A4",
"v  c #3F65AB",
"b  c #406093",
"n  c #6A6399",
"m  c #6E6A9E",
"M  c #4162A5",
"N  c #7C7AA9",
"B  c #7C7DA8",
"V  c #AE618B",
"C  c #807AA8",
"Z  c #5982C9",
"A  c #6F9ED4",
"S  c #6A99DC",
"D  c #6A97E0",
"F  c #78A6E7",
"G  c #7DB1F1",
"H  c #FFFA82",
"J  c #FFFFBB",
"K  c #FDFFBF",
"L  c #A5ACD3",
"P  c #A2ACD4",
"I  c #A4AED7",
"U  c #A3AFD8",
"Y  c #ADB7DA",
"T  c #ACB5DC",
"R  c #82B6F5",
"E  c #87B9F6",
"W  c #89BAF5",
"Q  c #89B7F8",
"!  c #89BAF8",
"~  c #8CBAF8",
"^  c #8DBFF9",
"/  c #AFBCE8",
"(  c #B0BBE7",
")  c #B1BFE7",
"_  c #8EC0FB",
"`  c #93C5FE",
"'  c #B3C1E8",
"]  c #B6C5EB",
"[  c #B2C4ED",
"{  c #B8C7EE",
"}  c #B6C8EF",
"|  c #B3C7F1",
" . c #B6CDF2",
".. c #B8CFF7",
"X. c #FFFFC1",
"o. c #FFFFDF",
"O. c #C7CBEF",
"+. c #DBD1EF",
"@. c #D9CEF0",
"#. c #D9CFF4",
"$. c #D8CDF8",
"%. c #CCEDF8",
"&. c #D3FFFF",
"*. c #D4FFFF",
"=. c LightYellow",
"-. c #E3FFFB",
";. c #E5FFFA",
":. c #E3FEFD",
">. c #E4FFFC",
",. c #EBFFFA",
"<. c #EFFFFA",
"1. c #E8FFFC",
"2. c #F7FFFF",
"3. c #FFFFFE",
/* pixels */
"; ; ; ; ; ; ; : : ; ; ; ; ; ; : : : : : : ; ; ; ; ; ; ; ; ; : ; ; : ; ; ; ; ; ; ; : : ; ; ; ; ; ; ; ; : ; ; ; ; ; ; ; ; : ; ; ; ",
"; ; ; ; ; ; ; ; ; ; ; ; ; ; ; ; ; : : : ; : ; ; ; ; ; ; ; ; ; ; ; ; : ; ; : ; ; ; ; ; : ; ; ; : ; ; : ; ; ; ; ; ; ; ; ; ; ; : ; ",
"; : ; ; ; : ; ; : ; ; ; ; ; ; ; : ; ; ; ; ; : ; : ; ; ; ; ; ; ; ; ; ; : ; ; : ; ; ; : ; ; ; ; : ; ; ; ; ; ; ; ; ; ; ; ; ; ; ; ; ",
"; ; ; ; - ; ; ; ; ; ; ; ; ; : ; ; ; ; ; ; ; ; ; ; ; ; - ; ; ; : ; : ; ; ; ; ; ; ; ; ; ; ; ; ; ; ; ; : ; ; : ; : : ; ; ; ; ; ; ; ",
": ; : ; ; ; ; ; ; ; ; ; ; ; ; : ; : ; - ; ; ; ; ; : ; ; ; ; ; ; : ; ; ; ; ; ; ; ; ; ; ; : ; ; ; ; : ; ; ; ; ; ; ; ; ; ; ; : ; ; ",
"; ; ; ; ; ; : ; ; ; ; ; ; ; ; ;           : ; ; ; ; ; ; ; ; ; ; ; : ; ; ; ; ; ; ; ; ; ; - ; ; ; ; ; ; ; ; ; ; ; ; ; ; ; ; ; ; ; ",
"; ; ; ; ; ; ; ; : ; ; ; ; ; ; ;   3.3.o o   ; ; ; : ; ; ; : ; ; ; ; ; ; ; ; : ; ; : ; ; ; ; ; : : ; ; ; ; ; ; - ; ; ; ; ; ; ; ; ",
"; ; ; ; ; ; ; ; ; - ; ; ; ; ; ;   3.3.o o     ; ; ; ; ; ; ; ; ; ; ; ; ; ; ; ; ; ; ; : ; ; ; : ; ; : ; ; : ; ; ; : ; ; ; ; ; ; ; ",
": ; ; ; ; ; ; ; ; : ; ; ; : ; ; :   3.3.3.} }   ; : ; ; ; : ; ; ; : ; ; ; ; ; ; ; ; ; ; ; ; : ; ; ; ; : ; ; ; : ; ; ; ; ; ; : ; ",
"; ; ; ; ; ; ; ; ; ; ; ; ; ; ; ; ;   } 3.3.3.}   ; ; ; ; ; ; ; ; ; ; : ; ; ; ;                 ; ; ; : ; ; ; ; ; ; ; ; : ; ; ; ; ",
"; : ; ; ; ; ; ; ; ; : ; ; ; ; ; ; ;     } 3.3.}     ; ; ; ; ; ; ; ; ; ;       , , , , , , 1 1         ; ; ; ; ; ; ; ; ; : ; ; ; ",
": ; : ; - ; ; ; ; ; ; ; ; : ; ; ; ; :     3.3.3.} }   ; ; ; ; ; ; : ;   < 3.3.3.3.3.3.3.3.3.3., , V V   ; ; ; ; ; ; : ; ; ; ; : ",
"; ; ; ; ; ; ; : ; ; ; ; ; ; ; ; : ; ; ;   3.3.3.} }   ; ; ; ; ; ; ;     > 3.3.3.3., , , 3.3.3., , V V   ; ; ; ; ; ; ; : ; ; ; ; ",
"; ; ; ; ; ; ; ; ; ; ; : ; ; ; - ; ; ; : ;     # & $   ; ; ; ; ; ;   , , 3.1 1 , , 3., , 1 1 1 3.3.1 1   ; ; ; ; ; ; ; ; : ; ; ; ",
"; ; : ; : ; ; ; ; ; ; ; ; ; ; ; : ; ; ; ; :   $ % @   ; : : ; ;     , , 3.1 1 , , 3., , 1 1 1 3.3.1 1   ; ; ; ; ; : ; ; ; : ; ; ",
"; ; ; ; ; ; ; ; ; ; ; ; : ; ; ; ; ; ; ; ; ;   3.} }   ; ; : :   , , 3.3.$., , 1 1 , , , 1 , , #.#.3.3.3   ; ; : ; ; ; ; ; ; ; ; ",
": ; : ; ; ; : ; ; ; ; ; : ; ; ; ; ; ; ; ; ;   3.} }   ; : ; ;   , , 3.3.$., , 1 1 , , , 1 , , $.$.3.3.3   ; ; ; : ; ; ; ; ; ; : ",
"; ; ; ; ; ; : ; ; ; ; ; ; ; : ; ; ; ; ; ; ;   3.} }             , , 3.3.1 1 1 1 1 , , , 1 1 1 1 1 3.3.3   ; ; ; ; ; - ; : ; : ; ",
"; ; ; : ; ; ; : ; ; ; ; ; ; ; ; ; ; ;         3.} }   3.3.3.3.  , , 3.3., , , , ,       , , , , , 3.3.3   ; ; ; ; ; : ; ; ; ; ; ",
"; ; ; ; ; : : - : ; ; : ; ; ; ; ; ;   3.3.    :.} } . } } } }   1 1 3.3.1 1 1 1 1   } } 1 1 1 1 1 3.3.3   ; ; ; ; ; ; ; ; ; ; ; ",
"; ; ; : ; : ; ; ; ; ; ; ; ; ; ; ; ;   3.3.    -.} } O } } } }   1 1 3.3.1 1 1       } } 2 2 1 1 1 3.3.3   ; ; ; ; ; ; ; ; ; ; : ",
"; ; ; ; ; ; ; ; ; ; ; : ; ; ; : ; ;   3.3.3.3.O + + O                         *.&.&.*.S 2 2 2 1 1 3.3.3   ; ; : : ; ; ; ; ; ; ; ",
"; ; ; ; : ; : ; ; ; ; ; ; ; ; ; ; ;   } } 3.3.3.3.3.3.3.3.3.3.3.3.3.%.%.%.} } A A A A A 2 2 2 3.3.1 V   ; ; ; ; ; ; ; ; ; ; ; ; ",
"; ; ; ; ; ; ; ; ; ; ; ; ; ; ; ; ; ;   } } 3.3.3.3.3.3.3.3.3.3.3.3.3.%.%.%.} } A A A A A 2 2 2 3.3.1 V   : ; ; ; ; ; ; ; ; ; ; : ",
": ; ; ; ; : ; ; ; ; ; ; ; ; ; ; ; :   } } 3.3.3.} } = = ^ _ ` A A A A V V 3 3 3 3 3 A A +.@.@.1 1 1   ; : ; ; ; ; ; ; ; ; ; ; ; ",
"; ; ; ; - ; ; ; ; ; ; ; ; - ; ; : ;   3.2.G 3.3.} } } = 8 b f u u u y t r 0 w w i p A A @.@.@.V V   ; ; : ; ; ; ; ; ; ; ; ; : ; ",
"; ; ; ; ; ; ; ; ; ; ; ; ; ; : ; ; ;   3.3.G 3.3.} } } * K K K K K K K K K K K K p d A A 3 3 3 V V   ; ; ; - ; ; ; ; ; ; ; ; ; ; ",
"; ; ; ; ; ; ; ; ; ; ; : ; ; ; ; ; ;   3.3.H K K K K } } 8 , , , , , A A , , , , 1 l l A           ; ; ; ; ; ; ; : ; ; ; ; ; ; ; ",
"; ; ; ; ; ; ; ; ; : ; ; ; ; : ; ; ;   3.3.H K K K K 3.3.8 , , , , , A A , , , , 1 1 l A   ; ; ; ; ; ; ; ; ; ; ; ; ; ; : ; ; ; ; ",
"; : ; ; ; : ; : ; ; : ; ; ; ; ; ; ;   3.3.H K K K K 3.3.T 8 8 3., , , , , , A A 1 1 l A   ; ; ; : ; : ; ; ; ; ; ; ; ; ; ; ; ; ; ",
"; ; : ; ; ; ; : ; ; ; ; ; ; ; ; ; ;   3.3.H R R 3.3.F F Y 8 8 3., , , , , , A A 1 1 l A   ; ; ; ; ; ; : ; ; ; ; ; ; : ; ; ; ; ; ",
"; ; ; : : ; ; ; ; ; ; ; ; ; ; ; ; ;   3.3.H R R 3.3.F F ,.O.8 D , , , , ` ` v v 1 1 k A   : ; ; ; ; ; ; ; ; ; ; ; ; ; ; ; ; ; ; ",
"; : ; ; : ; ; ; ; ; ; ; : ; ; ; ; ;   3.3.H R E ! Q J K [ ) / , , , , , A A A A 1 1 k A   ; ; ; ; ; : ; ; ; ; ; ; : ; ; ; ; ; : ",
"; ; ; ; : ; ; ; ; ; ; ; ; ; ; ; ; ;   3.3.H R W ~ ! J K | ' ' = , , , , A A A A 1 1 M A   ; ; ; ; ; ; ; ; ; ; ; ; ; ; ; ; ; ; ; ",
": - ; ; ; ; ; : ; - ; ; : ; ; ; ; ;   3.3.H K K J K K K <.] { 5 , , , , , 1 1 1 1 1 M A   ; ; ; ; ; ; ; : ; ; ; ; ; ; ; ; ; ; ; ",
"; : ; ; ; ; ; ; ; ; ; ; : ; : ; ; ;   3.3.3.K K K K K K  .P I m , , , , , 1 1 ` ` 1 k A   ; ; ; ; ; ; ; ; ; ; ; : ; ; ; ; ; ; ; ",
"; ; ; ; : ; : ; ; ; ; ; ; ; : ; : ;   3.3.3.J K X.K K K ..U L n , , , , , 1 1 ` ` 4 c A   ; - ; ; ; ; ; ; ; ; ; ; : ; ; ; ; ; ; ",
"; ; ; ; ; : ; ; : ; ; ; ; ; ; ; ; ;   3.3.3., , 3.3., , Z 1.,.( , , , , ` ` 1 1 4 4 c A   ; ; ; ; ; ; ; ; : ; ; ; ; ; ; ; ; ; ; ",
": ; ; ; ; ; ; ; ; ; : ; : : ; ; ; ;   3.3.3., , , , , , Z } } } = = , , ` ` 1 1 4 4 c A   ; ; ; ; ; ; ; ; ; ; ; ; ; ; ; ; ; ; ; ",
"; : : ; ; ; ; ; : ; ; ; ; ; ; ; ; ;   3.3.3., , , , , , , } } } = = , , ` ` 1 1 4 4 x A   ; ; ; ; ; ; ; ; ; ; ; ; ; ; ; ; ; ; ; ",
"; ; ; ; ; ; ; ; ; ; : ; ; ; : ; ; ;   } } 3., , =.3., , , Z Z ;.N B , , A A 1 1 4 4 c A   ; ; ; ; ; ; ; ; ; ; ; ; ; : ; ; ; ; ; ",
"; ; ; ; ; ; ; ; ; ; ; ; ; ; ; ; - ;   } } 3., , =.3., , , Z Z >.B C , , A A 1 1 4 4 c A   ; ; ; ; ; ; : : ; ; ; ; - : ; ; ; : ; ",
"; ; ; ; ; ; ; ; ; ; ; ; ; ; ; ; ; :   } } 3., , o.3., , , , , } } } = 1 1 1 1 1 4 4 c A   ; ; ; ; ; ; ; ; ; : ; ; ; ; : ; : ; ; ",
"; ; ; ; : ; ; ; ; ; ; ; ; ; ; ; ; ;   } } 3., , o.3., , , , , g } } = 1 1 1 4 4 4 4 c A   ; : ; : ; ; ; ; ; ; ; ; ; ; ; ; ; ; ; ",
"; ; ; ; ; ; ; ; : ; : : ; ; ; ; ; ;   } } 3., , o.3., , , , , h } } = 1 1 1 4 4 4 4 z A   ; ; ; ; ; ; ; : ; ; ; ; : : ; ; ; ; : ",
"; ; ; ; - ; ; ; ; ; ; ; ; ; ; ; : ;   } } 3., , , , , , 3.1 1 1 } } = = 1 1 4 4 4 4 j A   ; ; ; ; ; ; ; ; ; ; ; ; ; ; ; ; ; ; ; ",
"; ; ; ; ; ; ; : ; ; ; ; ; ; ; ; ; ;   } } 3., , , , 1 1 3.1 4 4 8 8 } A 6 4 4 4 4 4 c A   ; ; ; ; ; ; ; ; ; ; ; ; ; : ; ; ; ; ; ",
"; : ; ; ; ; ; ; ; ; ; ; ; ; ; : ; ;   } } 3.1 1 1 1 1 1 3.1 4 4 8 8 } A 7 4 4 4 4 4 x A   ; ; ; ; ; ; ; ; ; ; ; ; ; ; ; ; ; ; ; ",
"; ; ; ; ; ; ; ; ; ; : ; ; ; ; ; ; ;   } } 3.1 1 1 1 1 1 3.4 4 4 8 8 } A 9 4 4 4 4 4 l A   ; ; ; ; ; ; ; ; ; ; ; ; ; : ; ; ; : ; ",
"; ; ; ; ; ; ; ; ; ; ; ; ; ; : ; ; ;   } } 3.a a 4 4 4 4 4 4 4 4 4 4 A A 8 8 4 4 s d A A   ; ; ; ; ; ; ; ; ; ; ; ; ; ; ; ; ; : ; ",
"; ; : ; ; ; ; ; ; ; ; ; ; ; ; ; ; ;   a a 3.3.a 4 4 4 4 4 4 4 4 4 4 8 8 8 8 4 e A A A a   ; ; - ; ; ; : ; ; ; ; ; ; ; ; ; ; ; ; ",
"; ; ; ; ; ; ; ; ; ; - ; ; : : ; ; ;   a a } } } a a a a a a a a a a a a a a a q A A A a   ; ; ; ; ; ; ; ; ; ; ; ; ; ; ; ; ; ; ; ",
"; ; ; ; ; ; ; : ; ; ; ; : ; ; ; ; ;   a a } } } 3.3.3.3.3.3.3.3.%.%.%.%.%.A A A a a a a   ; ; : ; ; ; ; : ; : ; ; : ; : ; ; : ; ",
"; : ; ; ; ; ; ; ; ; ; ; ; ; ; ; ; ; ;         a a 3.3.3.%.%.%.%.A A A A A a a a         ; ; ; ; ; ; ; ; ; : ; : ; ; ; ; ; ; ; ; ",
"; ; ; ; ; : ; ; ; : ; ; ; ; ; ; ; ; ; ; ;                                           ; ; ; ; ; ; ; ; ; ; ; ; ; ; ; ; ; ; ; ; ; ; ",
": ; ; : ; ; ; ; ; : ; ; ; ; ; : ; ; : : ; ; ;                                   ; ; ; ; : ; ; ; : ; ; ; ; ; ; ; ; ; ; ; ; ; ; ; ",
"; ; ; ; ; ; ; ; ; ; X X ; X X X X X X X X X X X X X X X X X X X X X X X X X X X X X X X X X X X X X ; ; X X ; ; ; ; ; ; ; ; ; : ",
"; : : ; ; ; ; ; ; ; ; ; ; ; ; ; ; X X X X X X X X X X X X X X X X X X X X X X X X X X X X X X ; ; ; ; ; ; ; ; ; ; : ; : ; : ; ; ",
"; ; ; : ; ; ; ; ; ; ; : : ; ; : ; ; ; ; ; ; ; ; : ; ; ; : : ; ; : ; ; ; ; ; ; ; ; ; ; ; ; ; ; ; ; ; ; ; ; ; ; ; ; ; ; ; ; ; ; ; ",
"; ; ; ; : ; ; ; ; ; : ; ; ; ; ; ; ; ; ; : ; ; ; ; ; ; ; ; ; ; ; : : ; ; ; - ; : : : : ; ; ; ; ; ; ; ; ; ; : ; ; ; ; ; - ; ; ; ; ",
"; : ; ; - ; : ; ; ; ; ; ; ; ; ; ; ; ; ; ; ; ; ; ; ; ; ; ; ; ; : ; ; ; ; ; ; ; ; ; ; ; ; ; ; ; : ; ; ; : ; ; ; ; ; ; ; ; ; ; ; ; ",
"; ; ; ; ; ; ; : ; ; ; ; ; ; ; ; ; ; ; ; ; ; ; : ; ; ; ; ; ; ; ; ; ; ; ; ; ; ; : ; ; : ; ; ; ; ; ; ; ; : ; ; ; ; ; ; : ; ; ; ; ; ",
": ; ; : ; ; ; : ; ; ; ; ; ; ; : : ; ; ; ; ; ; ; ; ; ; ; ; ; ; ; ; ; ; ; ; ; : : : ; ; ; ; ; ; ; ; ; : ; ; : ; ; ; : ; ; ; ; ; ; ",
"; ; ; ; ; ; ; ; : ; ; ; ; ; ; : : : ; ; ; ; ; ; ; ; ; ; ; ; ; ; ; ; ; ; ; ; ; : ; ; ; ; ; ; ; ; ; ; ; ; ; ; ; ; : : ; ; ; ; : ; "
};
