/* XPM */
static char *_79776bcdd624ca3a0c92adfca3694a75fsJiAOyTxoBoLbR[] = {
/* columns rows colors chars-per-pixel */
"64 64 68 1 ",
"  c #010000",
". c #0F0808",
"X c #130A0A",
"o c #261313",
"O c #2B1515",
"+ c #3D1E1E",
"@ c #560101",
"# c #5A0000",
"$ c #5D0101",
"% c #620100",
"& c #670000",
"* c #6B0000",
"= c #7F0000",
"- c #7A0D0D",
"; c #761313",
": c #711819",
"> c #572200",
", c #793E0D",
"< c #412121",
"1 c #542A2A",
"2 c #582C2C",
"3 c #5F2F2F",
"4 c #6B2121",
"5 c #6B2222",
"6 c #6F2120",
"7 c #632B2B",
"8 c #642D2D",
"9 c #782020",
"0 c #603030",
"q c #663333",
"w c #673333",
"e c #830202",
"r c #890303",
"t c #910000",
"y c #970000",
"u c #9F1E1F",
"i c #AC0000",
"p c #AF0606",
"a c #B00000",
"s c #B50000",
"d c #B10404",
"f c #B70404",
"g c #B21616",
"h c #9F2020",
"j c #C10000",
"k c #C40000",
"l c #C80000",
"z c #D50001",
"x c #DB0000",
"c c #DD0505",
"v c #C61313",
"b c #E10000",
"n c #E50001",
"m c #E00505",
"M c #E90000",
"N c #EF0000",
"B c #F20001",
"V c #F50000",
"C c #FB0000",
"Z c #FC0000",
"A c #80440F",
"S c #AA6C20",
"D c #B07023",
"F c #33A50C",
"G c #4CB328",
"H c #42FE00",
"J c #43FF00",
"K c #CF8D2E",
/* pixels */
"GGGGGGGHHGGGGGGHHHHHHGGGGGGGGGHGGHGGGGGGGHHGGGGGGGGHGGGGGGGGHGGG",
"GGGGGGGGGGGGGGGGGHHHGHGGGGGGGGGGGGHGGHGGGGGHGGGHGGHGGGGGGGGGGGHG",
"GHGGGHGGHGGGGGGGHGGGGGHGHGGGGGGGGGGHGGHGGGHGGGGHGGGGGGGGGGGGGGGG",
"GGGGFGGGGGGGGGHGGGGGGGGGGGGFGGGHGHGGGGGGGGGGGGGGGGHGGHGHHGGGGGGG",
"HGHGGGGGGGGGGGGHGHGFGGGGGHGGGGGGHGGGGGGGGGGGHGGGGHGGGGGGGGGGGHGG",
"GGGGGGHGGGGGGGGGGGHHHHGGGGGGGGGGGHGGGGGGGGGGFGGGGGGGGGGGGGGGGGGG",
"GGGGGGGGHGGGGGGGHGGGGGGGGHGGGHGGGGGGGGHGGHGGGGGHHGGGGGGFGGGGGGGG",
"GGGGGGGGGFGGGGGGGHGHGGGGGGGGGGGGGGGGGGGGGGHGGGHGGHGGHGGGHGGGGGGG",
"HGGGGGGGGHGGGHGGHGGHGGGHGHGGGHGGGHGGGGGGGGGGGGHGGGGHGGGHGGGGGGHG",
"Gqqq0GGGGGGGGGGGGGGGGGGGGGGGGGGGGGHGGGGGGGGGGGGGGGHGGGGGGGGHqqqG",
"GHqqqqqqqq3GGGGGGGGGGGHGFGGGGGGGGGGGGFGHGGHGGGGGGHGGG3qqqqqqqqGG",
"HGHGvgqqqqqqqqqqqqqqqqqqqqqqqqqqqqqqqqqqqqqqqqqqqqqqqqqqqq:;GGGH",
"GGGGZZZZpuh947qqqqqqqqqqqqqqqqqqqqqqqqqqqqqqqqqqqq84446-iianGGGG",
"GGGGGZZZZZZZZZZZMkssssssssssssssssssssssssssssssskMZZZZZZZZGHGGG",
"GGHGHGGZZZZZZZZZZZZZZZZZZZZZZZZZZZZZZZZZZZZZZZZZZZZZZZZZZbGGGHGG",
"GGGGGGGGGGGGHnCZZZZZZZZZZZZZZZZZZZZZZZZZZZZZZZZZZCnGHGGHGGGGGGGG",
"HGHGGGHGGGGGHGGGDA>GGGGGGGGGHZZZZZZGGGHGGGGGGKS,GGHHGGGGHGGGGGGH",
"GGGGGGHGGGGGGGHGly*GGGGGGGHGHZZZZZZGHGHHGGHGGNjtGGGGHGGGGGFGHGHG",
"GGGHGGGHGGGGGGGzly*GGGGGGGGGGZZZZZZGGGGGGGFGGNjt@HGHGGGGGGHGGGGG",
"GGGGGHHFHGGHGGGxly*GGGGGFGGGGZZZZZZGHGGHGHGGGNjt#GGGGGGGGGGGGGGG",
"GGGHGHGGGGGGGGGbly*GGGGGGGGGGZZZZZZGGGGGGGGGHNjt$HHGGGGGGGGGGGGH",
"GGGGGGGGGGGHGGZNly*=GGGHGGGGGZZZZZZGGGGGGGGGZBjt&=GGGGGHHGGGGGGG",
"GGGGHGZZZZZZZZZNly*=ZZZZZZZZZZZZZZZZZZZZZZZZZBjt&=ZZZZZZZZGGGGGG",
"GGGGGGZZZZZZZZZVly*=CZZZZZZZZZZZZZZZZZZZZZZZZBjt&=ZZZZZZZZGGGGGH",
"HGGGGHZZZZZZZZZVly*=VZZZZZZZZZZZZZZZZZZZZZZZZBjt&=ZZZZZZZZGGGGGG",
"GGGGFGGGGGGGGFGVly*GHGGGGHGGGGGGGGGHGGGGGGGGGNjt&GGGHGGGGGGGGGHG",
"GGGGGGGGGGGGGGHVly*GGGHGGGGGGGGGGGFGGGGHGGGGGNjt&GGGGFGGGGGGGGGG",
"GGGGGGGGGGGHGGGVly*GGGGGGGGGGGGGGGGGGGGGGHGGGNjt&GGGGGGGHGGGGGGG",
"GGGGGGGGGHGGGGHVly*GGGGGGGGGGGGGGGGGGGGGGGGGGNjt&GGGGGGGGGGHGGGG",
"GHGGGHGHGGHGGGGVly*GGGGHGGGHGGGGGGGGGGGGGGGGGNjt%GHGGGGGGGGGGGGG",
"GGHGGGGHGGGGGGGVly*GGGGHGHGGGGGGGGGGGGGGGGGHGNjt%GGHGGGGGGHGGGGG",
"GGGHHGGGGGGGGGGVly*HGGGGGGGGGGGGGGGHGGGHGGGGGNjt%GGGGGGGGGGGGGGG",
"GHGGHGGGGGGGHGGVly*GHGGGGHGGGGGGGGGGGGGGGHHGGNjt%GHGGGGGGHGGGGGH",
"GGGGHGGGGGGGGGGVly*GGGGGFGGGGGHGGGGGGGGHGGGGHNjt%GGGGGGGGGGGGGGG",
"HFGGGGGHGFGGHGGVly*GGGGGGGGGGHGGGGGGGGGGGGHGGNjt%GGGHGGGGGGGGGGG",
"GHGGGGGGGGGGHGHVly*HGGGGGGGGGGGGGGGGGGGGGGGGGNjt%GGGGGGGHGGGGGGG",
"GGGGHGHGGGGGGGHVly*GGGGGGHGHGGGGGGGGGGGGGGGGGNjt%GGGGGGGGHGGGGGG",
"GGGGGHGGHGGGGGGVly*GGGGGGGGGGGGGHHGGGGGGGGGGGNjt%GGGGHGGGGGGGGGG",
"HGGGGGGGGGHGHHGVly*GGGGGGGGGGHGGGGGGGGGHGGGGGNjt%GGGGGGGGGGGGGGG",
"GHHGGGGGHGGGGGGVly*HGGGGGGGGHGGGGGGGGGHGGGGGHMjt%GGGGGGGGGGGGGGG",
"GGGGGGGGGGHGGGHVly*GGGGGGHGGGGGGGGGGGGGGGGGGGMjt%GGGGGGGGGHGGGGG",
"GGGGGGGGGGGGGGGVly*HGGGGHHGGGHGGGGHHHGGGGGGGHMjt%GGHHGGGGFHGGGHG",
"GGGGGGGGGGGGGGGVly&GHGGGGHGGGHGGGGGGGGGGGGGGGNjt%GGGGGHGGGGHGHGG",
"GGGGHGGGGGGGGGGVly*GGGGGGGGGGGGGGGGGGFGGHGGGGNjt%GGGGGGGGGGGGGGG",
"GGGGGGGGHGHHGGGVly&HGGGGGGGGGGGGGGGGGGGGGGGGHNjt%GGGHGGGGHHGGGGH",
"GGGGFGGGGGGGGGGVly*GGGGGGGGGGGGGGGGGGGGGGGGGGNjt%GGGGGGGGGGGGGGG",
"GGGGGGGHGGGGGGGVly*HGGGGGGGGGGGGGHHGGGGGGGGHGNjt%GGGGGGGGGHGGGGG",
"GHGGGGGGGGGGGGGVly*GGGGGGGGGGGGGGGGGGGGGGHGGGBjt%GGGGGGGGGGGGGGG",
"GGGGGGGGGGHGGGGVly*GGHGGGFGGGGGHGGHHGHGGGGGGHBjt%GGGGGGGGGHGGGHG",
"GGGGGGGGGGGGGGHBly*GGGGGGGGGGGGGGGGGGGGGGGGGGBjt%GGGGGGGGGGGGGHG",
"GGHGGGGGGGGGGGGBly*GGGGGGGGGGGGGGGHGGGGGGHGGGBjt%GGHGGGGGGGGGGGG",
"GGGGGGGGGGFGGHHBly*HGGGGGGGGGGGGHHGGHGGHGGGGGBjt%GGGGGGGGGGGGGGG",
"GGGGGGGHGGGGHGGVly*GGGHHGGGGGGGGGGGGGGGGGHGGGBjt%GGGHGHGGHGHGGHG",
"GHGGGGGGGGGGGGGmfr$GGGGGGGGHGGGGGGGGGGGGGGGGGcde@GGGGHGHGGGGGGGG",
"GGGGGHGGGHGGGGq2<OX GGGGGGGGGHGGGGGGGGGGGGGGq1+o. GGGGGGGGGGGGGG",
"HGGHGGGGGHGGGGq2<OX GGGGGGGGGGGGGGGGGGGHGGGGq1+o. GGGGGGGGGGGGGG",
"GGGGGGGGGGGHGGGGGHGGGGGGGGGGGHHGGGGGGGGGGGGGGGGGGGGGGGGGGGGGGGGH",
"GHHGGGGGGGGGGGGGGGGFGGGGGGGGGGGHGGGGGGGHGGGGGGGGGGGGGGGGGHGHGHGG",
"GGGHGGGGGGGHHGGHGGGGGGGGHGGGHHGGHGGGGGGGGGGGGGGGGGGGGGGGGGGGGGGG",
"GGGGHGGGGGHGGGGGGGGGHGGGGGGGGGGGHHGGGFGHHHHGGGGGGGGGGHGGGGGFGGGG",
"GHGGFGHGGGGGGGGGGGGGGGGGGGGGGGGHGGGGGGGGGGGGGGGHGGGHGGGGGGGGGGGG",
"GGGGGGGHGGGGGGGGGGGGGGGHGGGGGGGGGGGGGGGHGGHGGGGGGGGHGGGGGGHGGGGG",
"HGGHGGGHGGGGGGGHHGGGGGGGGGGGGGGGGGGGGGHHHGGGGGGGGGHGGHGGGHGGGGGG",
"GGGGGGGGHGGGGGGHHHGGGGGGGGGGGGGGGGGGGGGHGGGGGGGGGGGGGGGGHHGGGGHG"
};
