/* XPM */
static char *_1fd88ea314e4727b5f0e8e93d8d559cBXT9DbFpCsD819qJ[] = {
/* columns rows colors chars-per-pixel */
"64 64 9 1 ",
"  c black",
". c #040101",
"X c #200C04",
"o c #341406",
"O c #421704",
"+ c #62290E",
"@ c #33A50C",
"# c #4CB328",
"$ c #42FE00",
/* pixels */
"#######$$######$$$$$$#########$##$#######$$########$########$###",
"#################$$$#$############$##$#####$###$##$###########$#",
"#$###$##$#######$#####$#$##########$##$###$####$################",
"####@#########$############@###$#$################$##$#$$#######",
"$#$############$#$#@#####$######$###########$####$###########$##",
"######$###########$$$$###########$##########@###################",
"########$#######$########$###$########$##$#####$$######@########",
"#########@#######$#$######################$###$##$##$###$#######",
"$########$###$##$##$###$#$###$###$############$####$###$######$#",
"##################################$###############$########$####",
"#$########$###########$#@############@#$##$######$##########$###",
"$#$#@########$####$##############$#########$##############$####$",
"#######$########$####$##$#########$#####$####$#####$#######$####",
"###########$###@###$#############$################@#########$###",
"##$#$###########$####$######$$####$##$#######$###########$###$##",
"############$################$$#########$#####$$####$##$########",
"$#$###$#####$###############$#########$###########$$####$######$",
"######$#######$###########$#$##$####$#$$##$###$#####$#####@#$#$#",
"###$###$##################################@#####$$#$######$#####",
"#####$$@$##$######$#####@###########$##$#$#####$################",
"###$#$###########################$##########$####$$############$",
"###########$###$###$###$#######$#######################$$#######",
"####$#$#######################################$#################",
"######################$$#####$##$$##################$##########$",
"$####$###########$#########$####$$########$#####$###$###########",
"####@########@##$###$####$#########$############$###$#########$#",
"##############$#######$###########@####$#############@##########",
"###########$#############################$##############$#######",
"#########$####$############################################$####",
"#$###$#$##$############$###$####################$#$#############",
"##$####$###############$#$#################$#######$######$#####",
"###$$##############$###############$###$#####$##################",
"#$##$#######$#######$####$###############$$#######$######$#####$",
"####$###################@#####$########$####$###################",
"$@#####$#@##$################$############$#########$###########",
"#$##########$#$####$####################################$#######",
"####$#$#######$#$########$#$##################@##########$######",
"#####$##$#########$#############$$###################$##########",
"$#########$#$$###############$#########$########################",
"#$$#####$#########$$########$#########$#####$###################",
"##########$###$##########$################################$#####",
"################@##$####$$###$####$$$#######$######$$####@$###$#",
"#################$##$####$###$########################$####$#$##",
"####$################################@##$#####$#$###############",
"########$#$$#######$#########     ##########$#######$####$$####$",
"####@###########$########### ooooo #############################",
"#######$###########$####### +ooooo+ #######$##############$#####",
"#$#############$########### +oOOOO+ #####$######################",
"##########$##########$###@# +oOOOo+ #$######$#############$###$#",
"##############$############ +oo+Oo+ ##########################$#",
"##$######################## +o+X+o+ #####$#####@###$############",
"##########@##$$####$####### +O+X+O+ $##$########################",
"#######$####$#########$$### +oO+oO+ #####$#####$####$#$##$#$##$#",
"#$######################### +oOOoO+ #################$#$########",
"#####$###$################# +oOOoO+ ############################",
"$##$#####$#####$##$$####### +OOOOO+ ###$####$###$###############",
"###########$#####$######## +XOOoOOO+ ##########################$",
"#$$################@##### +XX.OOO.XO+ #$#################$#$#$##",
"###$#######$$##$######## +X..XXOOX..X+ #########################",
"####$#####$#########$## XX XXXXXXXXX XX $$$##########$#####@####",
"#$##@#$###############                   ######$###$############",
"#######$###############$###############$##$########$######$#####",
"$##$###$#######$$#####################$$$#########$##$###$######",
"########$######$$$#####################$################$$####$#"
};
