/* XPM */
static char *_9f74c8452e44e5fd4d97bab507e1056cCNqQgUTBQn1Q5AM[] = {
/* columns rows colors chars-per-pixel */
"64 64 250 2 ",
"   c #040402",
".  c #0A0502",
"X  c #060902",
"o  c #0B0B04",
"O  c #070609",
"+  c #0C0C0A",
"@  c #160905",
"#  c #140C04",
"$  c #1A0C03",
"%  c #130D0A",
"&  c #0E1204",
"*  c #0F110A",
"=  c #141304",
"-  c #1A1103",
";  c #171A07",
":  c #1A1B03",
">  c #13130C",
",  c #1C130B",
"<  c #0A0911",
"1  c #141411",
"2  c #1A1511",
"3  c #1A1B16",
"4  c #260803",
"5  c #380607",
"6  c #231806",
"7  c #23150B",
"8  c #2C150D",
"9  c #2A1A0C",
"0  c #35190C",
"q  c #241A13",
"w  c #261A15",
"e  c #2B1C14",
"r  c #321C14",
"t  c #371C16",
"y  c #1C2204",
"u  c #1E2015",
"i  c #292507",
"p  c #33250B",
"a  c #35390B",
"s  c #292417",
"d  c #2C221B",
"f  c #332214",
"g  c #3B2415",
"h  c #352B17",
"j  c #34241C",
"k  c #3B251A",
"l  c #3D2B1D",
"z  c #2D3314",
"x  c #373918",
"c  c #2B2722",
"v  c #352924",
"b  c #3B2C25",
"n  c #37352E",
"m  c #3A332A",
"M  c #47140D",
"N  c #421C18",
"B  c #6B0200",
"V  c #48271A",
"C  c #432B1D",
"Z  c #45371C",
"A  c #56321D",
"S  c #442C21",
"D  c #4B2C23",
"F  c #532A25",
"G  c #463424",
"H  c #4C3325",
"J  c #45332B",
"K  c #4B342C",
"L  c #57382A",
"P  c #453835",
"I  c #4B3C34",
"U  c #553B33",
"Y  c #5B3E32",
"T  c #643929",
"R  c #643B33",
"E  c #703031",
"W  c #3A440C",
"Q  c #3A4419",
"!  c #3B4522",
"~  c #464918",
"^  c #4C5618",
"/  c #58661A",
"(  c #636E1F",
")  c #574329",
"_  c #4B5526",
"`  c #535A26",
"'  c #4B4B30",
"]  c #59443A",
"[  c #67452A",
"{  c #6F512A",
"}  c #644234",
"|  c #6A4738",
" . c #754A38",
".. c #7A553B",
"X. c #5B6726",
"o. c #5F6C30",
"O. c #646928",
"+. c #687629",
"@. c #727D2E",
"#. c #6A6A35",
"$. c #6A7734",
"%. c #727C39",
"&. c #564843",
"*. c #544D49",
"=. c #684D47",
"-. c #774B42",
";. c #6B564A",
":. c #795645",
">. c #785B51",
",. c #79684C",
"<. c #95331A",
"1. c #85563B",
"2. c #8C533D",
"3. c #AB422F",
"4. c #8B673A",
"5. c #877238",
"6. c #8C3E46",
"7. c #874B45",
"8. c #875946",
"9. c #8E554E",
"0. c #945A48",
"q. c #975E53",
"w. c #A65950",
"e. c #896449",
"r. c #97664B",
"t. c #94774E",
"y. c #886556",
"u. c #9C6252",
"i. c #996A56",
"p. c #A6694C",
"a. c #A27149",
"s. c #A46657",
"d. c #AB6554",
"f. c #A46C55",
"g. c #AB6B55",
"h. c #AB6C5A",
"j. c #B36C5A",
"k. c #A67457",
"l. c #AC735D",
"z. c #AD7B5C",
"x. c #B3735D",
"c. c #B37A5A",
"v. c #987564",
"b. c #94716A",
"n. c #A96B62",
"m. c #A97865",
"M. c #B47C63",
"N. c #B77967",
"B. c #BA7C64",
"V. c #B2786F",
"C. c #CD7A59",
"Z. c #C67B6A",
"A. c #33A40C",
"S. c #6E842C",
"D. c #76862C",
"F. c #778739",
"G. c #7A9337",
"H. c #4CB328",
"J. c #42FF00",
"K. c #7C8F41",
"L. c #838A3C",
"P. c #81933C",
"I. c #848A48",
"U. c #859745",
"Y. c #B7835D",
"T. c #92AC4F",
"R. c #95A854",
"E. c #B58262",
"W. c #BB8463",
"Q. c #BD8A65",
"!. c #B5836A",
"~. c #BC836A",
"^. c #BD8A6B",
"/. c #AC8875",
"(. c #B68B70",
"). c #B98874",
"_. c #9FBC68",
"`. c #C5866B",
"'. c #C28C6D",
"]. c #D1856B",
"[. c #C4936C",
"{. c #CA956E",
"}. c #C38B73",
"|. c #CB8D74",
" X c #C68A79",
".X c #D58C78",
"XX c #C59273",
"oX c #CA9474",
"OX c #CB9974",
"+X c #CC947C",
"@X c #C9997B",
"#X c #D4957A",
"$X c #D19D7D",
"%X c #E2947C",
"&X c #CEA07C",
"*X c #D3A27C",
"=X c #AA8984",
"-X c #BA9885",
";X c #CB9A84",
":X c #C99886",
">X c #D69A87",
",X c #D09B8F",
"<X c #E49886",
"1X c #CEA189",
"2X c #D5A483",
"3X c #D9A384",
"4X c #D3A48C",
"5X c #D9A689",
"6X c #D7A98B",
"7X c #DCAC8C",
"8X c #CBAC94",
"9X c #DBA493",
"0X c #D4AA93",
"qX c #D7AA96",
"wX c #DBAC94",
"eX c #DEB193",
"rX c #D3B29A",
"tX c #DDB39B",
"yX c #E5A68B",
"uX c #E3AB95",
"iX c #E1B495",
"pX c #E3B59A",
"aX c #EAB79B",
"sX c #E4BA9C",
"dX c #F2B494",
"fX c #DFAFA1",
"gX c #DBBBA6",
"hX c #E5BCA1",
"jX c #E9BEA3",
"kX c #E4BBA9",
"lX c #F2B8A1",
"zX c #EBBFB2",
"xX c #D2C2AB",
"cX c #EBC1A5",
"vX c #E8C5AB",
"bX c #ECC4AA",
"nX c #F2C6AD",
"mX c #F4C8AB",
"MX c #E7C9B6",
"NX c #EECAB4",
"BX c #F3CCB4",
"VX c #F8CCB7",
"CX c #F5CEBA",
"ZX c #F4D1B6",
"AX c #F5D2BB",
"SX c #F9D6BB",
"DX c #F9D4BD",
"FX c #FAD6C1",
"GX c #F9D8C6",
"HX c #FCDAC4",
/* pixels */
"> > = & > o     o 3 3   X o * >     X + + + O O O +   O   + * + + . . 2 % X o   > > % % # # %   2   . w w w n w d w > w w     c ",
"o > & & X *   X   o > o o o 1 * > 3 3 + + 3 1   O + O O O + + o + o % X 2 2 o o > > % % , , % , % w c m d w , > 2 2 , , v v *.P ",
"> o o > + X X o +   X   X O O 1 + o > 3 1 > + * + 1 + O + O . 2 2 % > # , , w # # # # 7 7 q d 7 e 7 v m # % # > > w q q s m &.n ",
"> o X X + + X o X O   O +   O   + > > > + 1 1 3 3 1 o + % . . o # # % q 7 7 - # - 7 e d j b I J I , > w &.@ , d s , 7 d P P P P ",
"o o +   + + O O O o   + O +   X o X o > + + > > o X . 2 % . , # q w 7 , , e 7 - q , , d j e j b e , , w c 7 q v # s s &.I v &.n ",
"* o o s 3   X + O O   o o o X X X X   + + + O   + X @ w 7 7 - 7 f b b e 7 q m C k e q q e j J b I j @ , P w q c c v I P s ' n m ",
"o >   v u X X O O O O   O X o X X O   > . o X X o o # w w $ $ 9 l v q w J K C =.U l f f e j J J ] J q s d v v v u d b b v &.] ] ",
"1 X X X o o o X X   +   O X o + o X > o . . , @ % # 2 2 w @ v j q $ e 7 8 ] y.>.y.>.| ) S J b v I J d j m m v b 3 c P b v n I c ",
"* X X X X s > X X   + O X X > # 3 o = $ $ e 9 r r , , . . $ j > . 9 A Y y.} -.8./.m.!.i.>.] J d b b b b &.] P m J e =.P d v d c ",
"* X   o o o X X X   +   X X > , # = 7 7 l S k k S e $ @ q e $   e Y T  .i./.:.[ (.).m.i.:.:.S 7 k I l J >.;.U ' U b P d   k 8 E ",
"o X   * o & > o X   X X o . # , - 9 e f g k C H K r 4 8 H Y } -.| Y  .8.e.m. X1.(.(.XXk.8. .:.-.0 -.| U =.;.;.] =.=.P X =.zX2..X",
"X   X + > > > o X   X * , - $ 6 7 l l k H S L l g t V } |  .8.i.i.i...i.r.M.}.e.;X;X@XXX@X1X0XkXkXgX-Xy.>.,.>.y.>.y.f H s.]..XnX",
"X o X   > o = X o + * > , 9 9 9 r g f S k V C S S U :.8.8.8.r.l.}.k.i.m.l.!.;Xk.1X1X1X6XiXpXjXvXHXDXNX/.v.v.m././.b.L V.Z.C.dX7X",
"X X o X X   > X = o > : 6 e f g C C C K S D D A | :.0.u.u.f.g.l.~.M.).f.M.~.}.).0XqX0XeXwXtXhXNXDXZXBXhX-X/.-X;X/.,X!.5X.X*XC.].",
"X o o o X o > = = o # : i i f C C H C H D H Y 7.9.9.u.x.M.M.l.z.!.!.1Xz.(.(.!.4X4X6X6XwXeXwXbXNXCXNXNXNXgXrXrX8X8X-XrXyX%XdXp.C.",
"H.H.o X o o o = ; ; o p i - h G l H C L H Y | 7.0.q.d.M.B.B.}.~.M.!.).(.;X@X4X4X6X4X6X6XiXpXaXbXNXNXvXvXvXgXgXgXxXgXNX>X%XmX>X].",
"J.H.J.H.o o o o ; = ; y i f f l k C H } T }  .8.9.u.f.x.B.^.;X X}.!.M.;X1X0X1X0X0X0X4X4X6XeXpXbXbXbXjXcXbXvXvXMXMXvXFXpXyXnXaX>X",
"H.H.H.H.H.; o > o : z = h h f S C g } | } } | 8.8.0.g.c.B.}.}. X).m.i.-X-X;X,X-X8X;X1X0X4XtXcXbXcXbXcXcXNXNXNXBXCXBXHXbXaX!.w.`.",
"H.H.H.J.H.H.o > X ; x & i p l K G g | | } }  . .8.0.g.x.l.V.m.b.y.U ;.;.U | | Y L } :./.rXgXvXvXbXbXbXcXvXNXNXSXCXCXFXBXlX0.B <.",
"H.H.H.H.H.J.; 2 X Q Q y i Z Z S l H | | } } |  .7.1.0.i.y.>.=.b . j q 7 e 8 4 D -.v.!.).1XtXvXjXjXhXcXmXBXBXBXMXAXCXAXbXlX#Xw.3.",
"H.H.H.J.H.J.; = ; ~ _ x i i i 9 f } } | } Y } | -.8.8.y.=.j % . % w @ @ r K ;.>.v.).;X4XwXhXtXeXhXhXjXbXbXBXBXCXBXGXHXjXlXuX<XZ.",
"H.H.H.H.H.H.H.; ! X.^ _ z _ a Z ) ) } } Y L Y } | -.-.&.;   # % . , e g L ] Y -.y.M.;X4XpXpX6X4XwXpXjXbXnXBXBXAXHXDXFXkXaXhXyXyX",
"H.H.H.H.J.H.J.> z Q ! Q W ` ^ ) ) ) Y Y L D L ) | } H . @ 7 8 e j 8 7 8 j K ;.>.} A u.;XwXwX4X4X6XiXjXbXnXBXCXAXDXVXHXVXpXcX<X%X",
"H.H.H.H.H.H.H.H.= X y ; a a ~ x x G K U H C H U Y U 7 $ 8 S D K t 8 j v j e v =.b.!.0.k.@X;X@X4X6XeXsXbXnXBXVXAXCXCXAXFXmXlX<X%X",
"J.H.H.H.H.J.H.H.+ o & * o = ; = 6 9 l K K k g H Y l 7 r U L H D r 7 , d .   *.  ] 0  .2.f.}.>X6XwXeXpXjXnXBXCXDXAXFXNXSXVX`.Z.aX",
"H.H.H.H.A.H.H.H.o X + ; O <   X = = 6 f J l g F L L R -.} H C 0 r 7 m I . X   J =Xm.N.M.!.@X6XwXwXpXpXhXbXBXAXCXHXFXCXAXnX#XyXcX",
"H.H.H.H.H.H.H.H.o y o : o o o o o % , 6 p p C A  .-.7.u.| C t t 0 k U ;.&.. v b.v.i.^.;X;X4X0XtXtXpXpXsXbXBXDXFXHXHXCXAXCXyXdXlX",
"H.H.H.H.H.H.H.H.H.z z X ` y X     O X ; z Z Z [ 8.l.x.m.y.| V V N N K ;.b.b.y.y.q.N. X;X;X0XrXtXpXpXpXsXbXCXFXAXHXHXCXBXSXuXdXlX",
"H.H.H.H.H.H.H.H.H.J.x a _ v   * X   O o   ~ O.[ i.`.|.}.).i.-.R F D ] =.R T R y.m.N. X,X1X,XtXtXpXpXpXsXnXCXHXAXHXFXCXCXZXuXdXmX",
"H.J.H.H.H.J.H.J.H.H.J.m O %._ *   <   X < X U.O.h.>X>X;X;X).0.L S V N S V L ..u.N.}.;X,X4X0XtXtXtXpXpXjXbXFXFXAXHXHXAXCXDXnXpXlX",
"H.H.J.H.H.H.H.J.H.H.H.Q Q _ o.z ; o . # + ; U.5.c.wX0X3X0X;X).L N D D F R  .q.M.).;X;X,X4X0XwXwXwXiXsXjXbXFXFXAXDXDXAXZXDXBXbXuX",
"H.H.H.J.J.H.H.H.H.H.H.X.%.Q _ z i , $ @ # X / t.c.pX0X5XwXtX0XV.T V L R -.9.h.m.). X;X;X>X4X9X7X7XiXaXjXBXHXFXAXCXBXAXZXCXVXVXmX",
"H.J.H.H.J.H.H.H.H.H.H.^ P.$.W 6 6 7 6 @ #   +.5.g.wX6X3X9XtXtXtX).:.L F T -.8.u.n.N.).+X+X+X$X3X5X7XjXjXAXHXFXAXCXBXAXZXCXBXVXmX",
"H.H.H.H.J.H.H.H.H.H.H.H.P.U.+.~ a 6 6 $ @ X F.4.g.9X6XyX9XtXtXtX0X;Xm. .T T ..0.u.h.N.}.}.'.|.$X3X7XsXcXDXHXFXBXCXAXDXAXZXBXBXmX",
"J.A.H.H.H.H.H.J.H.A.H.H.F.R.G.O.^ a i - X i T.5.d.,X9X<X9XwXwXwX;X XN.x.q.2. .2.0.u.l.B.`.'.|.oX2X6XpXbXDXHXAXbXBXAXSXDXDXCXBXSX",
"H.J.H.H.H.H.H.H.H.H.H.H.X.T.T.G.@.~ i - X X.R.t.u.,XwX>X4X9XuXwX>X XN.d.h.s.u.u.s.s.h.N.B.~.oXoX3X7XiXbXCXDXNXcXBXAXDXDXDXAXCXZX",
"H.H.H.H.J.H.J.H.H.H.H.H.~ U.R.T.$.~ i : O F._.I.0.,XpX>X4X9XuXwXwX;X}.N.s.s.h.h.l.M.B.~.~.`.oXoX5X7XeXbXBXBXvXbXBXAXSXDXAXCXCXAX",
"H.H.H.H.H.J.H.H.J.H.H.H.H.F.T.U.$.~ i : a K.T.R.2.;XkX4X>X9X3X9X9X4X}.N.j.d.d.x.B.~.~.'.'.'.oX{.$X6XeXbXnXjXsXjXbXBXSXHXAXZXBXSX",
"J.H.H.H.H.H.H.H.H.H.J.H.J.$.P.G.@.^ x a X.F.T.R.2. XkXqX>X>XyX>X>X9X+XB.h.d.h.h.x.B.~.^.'.oXOXOX2X7XtXcXjXsXiXjXcXBXDXSXAXZXZXZX",
"H.J.J.H.H.H.H.H.J.H.H.H.H.H.G.F.O.` Q ` +.F.T.R.4.Z.fXuX>X>X#XyX>X5X+XB.j.w.h.f.l.B.~.^.XXoX$X3X7XeXsXjXpXeX6XpXhXNXAXSXAXAXAXSX",
"H.H.H.H.H.H.H.H.H.H.J.H.H.H.o.D.O.^ / $.$.X.K.R.r.V.,X9X>X>X>X#X#XoX|.B.d.f.s.g.x.B.W.'.[.oX$X7XiXpXjXhXwX6X2XeXpXbXZXSXAXZXZXAX",
"H.H.H.H.H.H.H.H.H.H.H.H.H.H.H.@.+.+.+.@.$.O.$.L.e.s.;X9X>X>X.X.X#X|.x.x.x.d.h.g.N.B.W.'.[.XX$X7XeXsXjXsXeX2X2X7XiXcXBXAXAXZXZXDX",
"H.H.H.H.H.H.H.H.H.H.H.H.H.H.H._ @.+.S.S.+.X.X.+.4.s.>X9X9X>X|..X#X>X`.d.w.d.j.x.x.B.~.^.XXOX*XeXiXjXcXsXpX6X2X5XwXsXNXZXZXBXZXDX",
"H.H.H.H.J.H.H.H.H.H.H.H.H.H.H.H.` @.+.D.$.X.X.F.4.u. X9XuXuX>X>XuX9X}.w.d.d.d.x.x.W.~.'.XX$X2XeXpXjXbXhXpX7X2X5X7XsXbXBXBXBXBXNX",
"H.H.H.H.H.H.H.H.J.H.J.J.H.H.H.H.H.$.D.@.%.+./ L...9.Z.,X9X,X>X,Xm.0.B.j.j.j.0.x.B.W.W.'.XXOX2XiXsXhXbXhXsXiX2X3X7XsXbXBXBXNXBXvX",
"H.H.H.H.A.H.H.H.H.H.H.H.H.H.H.H.J.H.+.F.F.+./ R.[ 7.h. X X4X).M E w..X.XZ.j.d.j.Z.|.XX^.^.*X*XuXsXjXcXsXpXeX2X*XuXeXpXbXBXvXBX7X",
"H.H.H.H.H.H.H.J.H.H.H.H.H.H.H.H.H.H.H.D.F.D.X.I.L E 9.x.B.i.7.V. X X>X+X`.Z.N.Z.B.|.#XOXoX{.*X7XpXsXsXsXpXeX5X2X7XeXtXcXbXbXsX3X",
"H.J.H.H.H.H.H.H.H.H.H.H.H.H.H.J.H.H.H._ D.F.@./ ~ r L e.8.F -.k.B.>X+X@X}.`.N.~.`.'.oX$X$XOX$X5XiXiXpXpXiXeX5X5X7X7XtXcXiXcX2X*X",
"H.H.H.H.H.H.H.H.H.H.J.H.H.H.H.H.H.H.H.H.+.G.D.+.@.%.%.#.p r H u.B. X+X).~.B.B.m.^.!.}.$X2X2X2X5XiXiXiXiXiXiX5X2X6X7XiXaXeX5X[.*X",
"H.H.H.H.H.H.H.H.H.H.H.H.H.H.J.H.H.H.H.H.H.D.F.+.D.P.G.G.~ H p  .M..X X;X XN.m.m.N.~.~.|.3X>X3X5XiXiXiXeXeX7X2X5X2X7XeX7X7XQ.{.*X",
"H.H.J.H.H.H.H.H.H.H.H.H.H.H.H.H.H.H.H.H.H.~ F.F.K.U.G.G.#.8.F M z.|.>X;X;X+X!.n.0.0.k.!.XX$X3X2X7X7X7X7X7X6X*X2X2X2X*X*X[.Y.OX*X",
"H.H.H.H.H.H.H.H.H.H.A.H.H.J.J.H.H.H.H.J.H.H.$.F.F.F.S.D.5.!.q.L 8.u.i.m.V.m.m.y.N 5 V ..z.@X$X$X2X2X2X2X2X2X&XOX*XOXXXoXc.[.OX*X",
"H.H.H.H.H.H.H.J.H.H.H.H.J.H.H.H.H.H.H.H.H.H.J.D.S.+.U.U.~ [  .L F M 4 4 4 5 V E  .V.i. .r.c.'.OX$X$X$X*X2X2X&X{.[.[.[.W.c.[.OX*X",
"H.J.H.H.H.H.H.H.H.H.H.H.H.H.H.H.H.H.H.H.H.H.H.o.+.~ ,.i $ 6 f t t 5 5 M E 7.V.n.N.}.'.B.f.f.Y.^.oX$XOX$X$X$X@X[.W.W.Y.a.Q.OX{.$X",
"H.H.H.H.H.J.H.H.H.J.H.H.H.H.H.H.H.H.H.H.H.H.H.H.o.y o - 6 $ $ 4 N F E 6.w.n.n.N.B.~.B.z.f.k.z.Q.oXOXOXOX$XXX^.E.E.c.a.c.[.[.OXOX",
"J.H.H.J.H.H.H.H.H.J.H.H.H.H.H.J.H.H.J.J.H.H.H.H.~ z ~ I.~ X.) Y  .R 6.9.w.w.q.M.M.l.f.f.i.i.f.z.'.oXoXoX'.E.E.z.i.r.r.Y.[.[.{.{.",
"H.H.H.H.H.H.H.H.H.H.H.J.H.H.H.H.H.J.H.H.H.H.H.H.H.X.X.$.K.L.#.} } L L | -.7.q.r.r.0.0.0.r.u.f.B.^.'.^.'.Y.k.f.i.1.{ k.'.Q.[.[.{.",
"H.J.J.H.H.H.H.H.H.H.H.H.H.H.H.H.H.H.H.A.H.H.H.H.H.H.X.o./ ` ~ S r 8 8 r k S Y L [ ..8.r.r.f.k.E.~.'.W.E.z.i.8. .T r.z.'.Q.[.[.OX",
"H.H.H.J.H.H.H.H.H.H.H.J.J.H.H.J.H.H.H.H.H.H.H.H.J.H.Q ^ ~ ~ a 6 - $ $ $ $ 6 p V [ ..e.f.z.E.W.^.^.W.M.k.i...Y V 8.k.z.Y.Q.Q.[.{.",
"H.H.H.H.J.H.H.H.H.H.J.H.H.H.H.H.H.H.H.H.J.H.H.H.H.H.H.` ^ ~ W i : 6 9 V V L |  .8.f.z.~.'.^.Q.^.E.z.z.r.| V p [ r.r.c.Y.W.Q.^.[.",
"H.J.H.H.A.H.J.H.H.H.H.H.H.H.H.H.H.H.H.H.H.H.H.H.H.H.H.H.( ` ~ Z p Z Z L  .0.x.B.~.W.`.|. X}.^.Q.z.f.8.[ 8 9 I ..r.r.c.Y.Y.Q.^.[.",
"H.H.H.H.H.H.H.J.H.H.H.H.H.H.H.H.H.H.H.H.H.H.H.J.H.H.H.H.~ +.O.X.+.%.[ [ [ 8.s.^.XX;X).^.}.`.W.M.i.:.H 6 p A [ ..8.r.a.z.Y.Y.'.+X",
"J.H.H.J.H.H.H.J.H.H.H.H.H.H.H.J.J.H.H.H.H.H.H.H.H.H.H.H.H.X.%.%.U.F.A L L } 8.n. XXXQ.Q.!.m.n.i. .V g l C ) [ 1.1.r.k.c.c.Q.Q.[.",
"H.H.H.H.H.H.H.H.J.H.H.H.H.H.H.J.J.J.H.H.H.H.H.H.H.H.H.H.H.H.+.+.U.,.L K p h K 7.i.M.m.k.r.e...L V Z G l H ) [ { 1.e.r.c.Y.Y.Y.E."
};
