/* XPM */
static char *_28a481359274d5cf9f182a3f1db8aaaPTlpDww6uS8vk5TO[] = {
/* columns rows colors chars-per-pixel */
"64 64 14 1 ",
"  c #000001",
". c #040100",
"X c #021801",
"o c #181701",
"O c #200C04",
"+ c #341406",
"@ c #421704",
"# c #63290F",
"$ c #6E6D0A",
"% c #33A50C",
"& c #4CB328",
"* c #42FE00",
"= c #A8A72C",
"- c #E2E16E",
/* pixels */
"&&&&&&&**&&&&&&******&&&&&&&&&*&&*&&&&&&&**&&&&&&&&*&&&&&&&&*&&&",
"&&&&&&&&&&&&&&&&&***&*&&&&&&&&&&&&*&&*&&&&&*&&&*&&*&&&&&&&&&&&*&",
"&*&&&*&&*&&&&&&&*&&&&&*&*&&&&&&&&&&*&&*&&&*&&&&*&&&&&&&&&&&&&&&&",
"&&&&%&&&&&&&&&*&&&&&&&&&&&&%&&&*&*&&&&&&&&&&&&&&&&*&&*&**&&&&&&&",
"*&*&&&&&&&&&&&&*&*&%&&&&&*&&&&&&*&       &&&*&&&&*&&&&&&&&&&&*&&",
"&&&&&&*&&&&&&&&&&&            &&& -------..   &&&&&&&&&&&&&&&&&&",
"&&&&&&&&*&&&&&&&  ------------   -------------  *&&&&&&%&&&&&&&&",
"&&&&&&&&&%&&&&& ---------------. --------------- *&&*&&&*&&&&&&&",
"*&&&&&&&&*&&&*.----------------.----------------- &*&&&*&&&&&&*&",
"&&&&&&&&&&&&&.---------------==.==--------------- *&&&&&&&&*&&&&",
"&*&&&&&&&&*& --------------===.====-------------- &&&&&&&&&&*&&&",
"*&*&%&&&&&& ------------=====.========----------- &&&&&&&&*&&&&*",
"&&&&&&&*&& ------===========..=$$.========------- &*&&&&&&&*&&&&",
"&&&&&&&&&.------==========..===$$$$============-- %&&&&&&&&&*&&&",
"&&*&*&&&&.-----====.==...====$$$$.$$==========$$$ &&&&&&&*&&&*&&",
"&&&&&&&&&.---==============$$$$$$$.$$$=$$$$$$$$$$ &&*&&*&&&&&&&&",
"*&*&&&*&& -===========$$$$$$$$$$$$.$$$$$$$$$$$$    *&&&&*&&&&&&*",
"&&&&&&*&& -=========$$$$$$$  ...$$$..$$$$$$$$$-----. &&&&&%&*&*&",
"&&&*&&&*& =======.$$$$$$  $====. $=--.$....$--------- &&&&*&&&&&",
"&&&&&**%*& =======$$$$$$ =-----=  $------==.=---------.&&&&&&&&&",
"&&&*&*&&&& =====$$$$$$..--------== --------..=--------- &&&&&&&*",
"&&&&&&&&&&  ===.$$$$$ ------------..-------=...-------- *&&&&&&&",
"&&&&*&*&&& - =.-.$$$.--------------.--------=..===---==.&&&&&&&&",
"&&&&&&&&& --- ---.$==-----------------------===========.&&&&&&&*",
"*&&&&*&&& -------..===----------------------===========.&&&&&&&&",
"&&&&%&&&& -------======----------===------============= &&&&&&*&",
"&&&&&&&&& ------=========-------======---==========.... &&&&&&&&",
"&&&&&&&&& -----===========-=--==$..=============....$$... &&&&&&",
"&&&&&&&&& ----$......==========$$.$$==========$.$$$$$$$$$ &*&&&&",
"&*&&&*&* ---$$$$$$$$..=$$====$$$$.$$=========$$$$$$$$$$$$ &&&&&&",
"&&*&&&&* --$$$$$$$$$$$$$$$$$$$$$$$$$$======$$$$$$$$$$$$$$ *&&&&&",
"&&&**&&& -$$$$$$$$$$$$$$$$$$$$$$$$.$$$$===$$$$$..$$$$$$$$ &&&&&&",
"&*&&*&&& o$$$$$$$$$$$$$$..$$$$$$$$.$$$$$$$$$$$..$$$$$$$o$ &&&&&*",
"&&&&*&&& oo$$$$$$$$$$$$$$.$$$$$$$$$..$$$$$$.$$.$$$$$$$oo &&&&&&&",
"*%&&&&&* ooo$$$$$$$$$$$$$$.$$$$$$$$$$.....$$$$$$$$$$oooo &&&&&&&",
"&*&&&&&&& oooX$o$$ $$$$$$$.$$$$$$$$$$$$$$$$$$$$$$$oooooo &&&&&&&",
"&&&&*&*&& oooooo$ $$$$$$$$$$$$$$$$$$$$$$$$$$$$oooooooooX *&&&&&&",
"&&&&&*&&*& oooooo o$$$$$$$$o.$$$$$$$$$$$$$$ooooooooooo  &&&&&&&&",
"*&&&&&&&&& ooooo ooooo$$$$oo.oo$$$$$$$$$oooooo.ooooo  &&&&&&&&&&",
"&**&&&&&*&&   o oooooooooooo..oo$$$$$$ooooooo..oooo &&&&&&&&&&&&",
"&&&&&&&&&&*&&& oooooooooooooo ooooooooooooooo.ooooo &&&&&&*&&&&&",
"&&&&&&&&&&&&&&& oooooooooooooo ooooooooooooo..oooo **&&&&%*&&&*&",
"&&&&&&&&&&&&&&& oooooooooooooo oooooooooooo..ooooo &&&*&&&&*&*&&",
"&&&&*&&&&&&&&&&& oooooooooooooo ooooooooo...ooooo &&&&&&&&&&&&&&",
"&&&&&&&&*&**&&&&&  ooooooooooo   ooooooo         &&&*&&&&**&&&&*",
"&&&&%&&&&&&&&&&&*&&  ooooooo   OO  oooo  &&&&&&&&&&&&&&&&&&&&&&&",
"&&&&&&&*&&&&&&&&&&&*&        O@@@O .    &&&*&&&&&&&&&&&&&&*&&&&&",
"&*&&&&&&&&&&&&&*&&&&&&&&&&& O+@@@@#O &&&&*&&&&&&&&&&&&&&&&&&&&&&",
"&&&&&&&&&&*&&&&&&&&&&*&&&%& #+@@@+# &*&&&&&&*&&&&&&&&&&&&&*&&&*&",
"&&&&&&&&&&&&&&*&&&&&&&&&&&& #++#@+# &&&&&&&&&&&&&&&&&&&&&&&&&&*&",
"&&*&&&&&&&&&&&&&&&&&&&&&&&& #+#O#+# &&&&&*&&&&&%&&&*&&&&&&&&&&&&",
"&&&&&&&&&&%&&**&&&&*&&&&&&& #@#O#@# *&&*&&&&&&&&&&&&&&&&&&&&&&&&",
"&&&&&&&*&&&&*&&&&&&&&&**&&& #+@#+@# &&&&&*&&&&&*&&&&*&*&&*&*&&*&",
"&*&&&&&&&&&&&&&&&&&&&&&&&&& #+@@+@# &&&&&&&&&&&&&&&&&*&*&&&&&&&&",
"&&&&&*&&&*&&&&&&&&&&&&&&&&& #+@@+@# &&&&&&&&&&&&&&&&&&&&&&&&&&&&",
"*&&*&&&&&*&&&&&*&&**&&&&&&& #@@@@@# &&&*&&&&*&&&*&&&&&&&&&&&&&&&",
"&&&&&&&&&&&*&&&&&*&&&&&&&& #O@@+@@@# &&&&&&&&&&&&&&&&&&&&&&&&&&*",
"&**&&&&&&&&&&&&&&&&%&&&&& #OO.@@@.O@# &*&&&&&&&&&&&&&&&&&*&*&*&&",
"&&&*&&&&&&&**&&*&&&&&&&& #O..OO@@O..O# &&&&&&&&&&&&&&&&&&&&&&&&&",
"&&&&*&&&&&*&&&&&&&&&*&& OO OOOOOOOOO OO ***&&&&&&&&&&*&&&&&%&&&&",
"&*&&%&*&&&&&&&&&&&&&&&                   &&&&&&*&&&*&&&&&&&&&&&&",
"&&&&&&&*&&&&&&&&&&&&&&&*&&&&&&&&&&&&&&&*&&*&&&&&&&&*&&&&&&*&&&&&",
"*&&*&&&*&&&&&&&**&&&&&&&&&&&&&&&&&&&&&***&&&&&&&&&*&&*&&&*&&&&&&",
"&&&&&&&&*&&&&&&***&&&&&&&&&&&&&&&&&&&&&*&&&&&&&&&&&&&&&&**&&&&*&"
};
