/* XPM */
static char *b9a8e54a169f4469818b5d8af4f07c61QrtKycBhHb9mtnVa[] = {
/* columns rows colors chars-per-pixel */
"64 64 187 2 ",
"   c None",
".  c #020301",
"X  c #0A0301",
"o  c #010B02",
"O  c #0C0A03",
"+  c #01050A",
"@  c #0A0708",
"#  c #010B0C",
"$  c #0B0A0A",
"%  c #100600",
"&  c #130B02",
"*  c #140A0A",
"=  c #04120D",
"-  c #0C110E",
";  c #021306",
":  c #12120E",
">  c #18130A",
",  c #000411",
"<  c #0B0714",
"1  c #010C14",
"2  c #080B16",
"3  c #00061E",
"4  c #000C1A",
"5  c #021113",
"6  c #0A1413",
"7  c #071911",
"8  c #00131E",
"9  c #09111B",
"0  c #111211",
"q  c #1D1D18",
"w  c #271F1C",
"e  c #291E12",
"r  c #1F2E00",
"t  c #283300",
"y  c #24241D",
"u  c #2B221D",
"i  c #20291F",
"p  c #282F1F",
"a  c #000D24",
"s  c #001324",
"d  c #001826",
"f  c #00182C",
"g  c #121F24",
"h  c #001E3E",
"j  c #241C21",
"k  c #231F2A",
"l  c #002025",
"z  c #0F2220",
"x  c #15242A",
"c  c #1A252A",
"v  c #122A2D",
"b  c #1E2A2B",
"n  c #1D2625",
"m  c #1A3027",
"M  c #1E3C27",
"N  c #0B2C35",
"B  c #0C2D3B",
"V  c #0F2133",
"C  c #122934",
"Z  c #1A2C32",
"A  c #122F3A",
"S  c #19293A",
"D  c #0E323A",
"F  c #1D3035",
"G  c #183935",
"H  c #1E3138",
"J  c #12313B",
"K  c #232425",
"L  c #2C2523",
"P  c #252A26",
"I  c #2B2A24",
"U  c #24232A",
"Y  c #2E252B",
"T  c #242A2B",
"R  c #2C2A2B",
"E  c #322626",
"W  c #302B25",
"Q  c #332C2C",
"!  c #32252D",
"~  c #293325",
"^  c #24322C",
"/  c #2C322C",
"(  c #313128",
")  c #292633",
"_  c #252B33",
"`  c #2D2B32",
"'  c #292C38",
"]  c #322A31",
"[  c #322E3B",
"{  c #243136",
"}  c #2D3234",
"|  c #22313A",
" . c #313131",
".. c #393330",
"X. c #0B2D43",
"o. c #1F2B40",
"O. c #162B42",
"+. c #033349",
"@. c #0D3643",
"#. c #143443",
"$. c #133D43",
"%. c #272F43",
"&. c #203442",
"*. c #21474E",
"=. c #2D4A40",
"-. c #37494D",
";. c #305946",
":. c #274657",
">. c #2F475F",
",. c #274955",
"<. c #334E54",
"1. c #3A4C51",
"2. c #304D5A",
"3. c #2A525E",
"4. c #285354",
"5. c #335259",
"6. c #194A60",
"7. c #194F68",
"8. c #1C5367",
"9. c #14596A",
"0. c #195572",
"q. c #1A557F",
"w. c #234F62",
"e. c #244A65",
"r. c #235463",
"t. c #2A5361",
"y. c #265A69",
"u. c #335262",
"i. c #3E5967",
"p. c #245976",
"a. c #415358",
"s. c #415169",
"d. c #5F787C",
"f. c #697778",
"g. c #70817B",
"h. c #4F7C8F",
"j. c #467B84",
"k. c #5E7687",
"l. c #5B7A86",
"z. c #537789",
"x. c #487797",
"c. c #4C7B94",
"v. c #487C98",
"b. c #567B92",
"n. c #597E94",
"m. c #627688",
"M. c #687C83",
"N. c #3F88A6",
"B. c #358AAB",
"V. c #3385AF",
"C. c #2888B1",
"Z. c #3E8DB0",
"A. c #3293B9",
"S. c #5A8086",
"D. c #5E838C",
"F. c #4D829C",
"G. c #44829A",
"H. c #528293",
"J. c #648289",
"K. c #628B9E",
"L. c #4F87AB",
"P. c #4888AC",
"I. c #4686A7",
"U. c #5789A3",
"Y. c #8FAE96",
"T. c #86AE95",
"R. c #8FB4AF",
"E. c #B3AEB2",
"W. c #BFB2B7",
"Q. c #B6B5BD",
"!. c #B0BBBF",
"~. c #BDBABB",
"^. c #B6B4B2",
"/. c #C1B7BC",
"(. c #BBC98D",
"). c #BFCC9A",
"_. c #B2B9C4",
"`. c #C3BEC0",
"'. c #E0DCDD",
"]. c #DDE4E4",
"[. c #ECE4E3",
"{. c #E9E6EB",
"}. c #EFE9ED",
"|. c #F0EAEF",
" X c #EFEDF0",
".X c #F4EDF1",
"XX c #F5F1F7",
/* pixels */
"                                                                                                                                ",
"                                                                                                                                ",
"                                                                                                                                ",
"                                                                                O X X *                                         ",
"                                                                                  O Q Y X X                                     ",
"                                                                                  X ] Y L E X X                                 ",
"                                                                                    X Y ! L u W X                               ",
"                                                                                    . L Y L W w j X                             ",
"                                                                                      . L L W I ` K .                           ",
"                                                                                      X y ( . o . T ..%                         ",
"                                                                                        X p o Y.=.. ] .                         ",
"                                                                                        . ~ o T.R.# { .                         ",
"                                                                                        O ~ M ;.4.3.4 a.                        ",
"                                                                                      O I - m G t.6.8.,.                        ",
"                                                                              . O & . W K P . Z #.w.r.*.                        ",
"                                                                            X e u L Q j K U . . . b { .                         ",
"                                                            o               0 R R $ ] Y ` R .     * . .                         ",
"                                                            o =         4 s k.1 9 Q./.W.'.~.O       .                           ",
"                                                            . 1.1 1 4 4 b.n.s C _.XX[.[.. . .                                   ",
"                                                              1 8.N.P.L.8 # b ) Q.{.|.. t (.o                                   ",
"                                                              5 7.Z.V.h + K R K ~..X}.. ).r o                                   ",
"                                                                4 w.0.F.1 P P  . XE.`.^.o o                                     ",
"              &                                           = 1 d F 1 4 t.1.# b ].{.XX.X. . f.; o                                 ",
"              X O O                                 1 + 6 N B.B.5 = z 5 # d.5 #  X. X     ; J.D.#                               ",
"                O i # # .                 + # o O # h.H.C @.C.A.l i / T F 5 d.f.# R :       1 8 S.#                             ",
"                  o l.t.A 4 1 1 # 5 5 1 f U.H.N g C P.P.X.B I.0.1 K K T . !.+ $ g.7 / O         6 ^ .                           ",
"                    8 t.#.l.l.J A J.J.D +.U.G.+.Z &.L.q.e.O.X.:., ) U } # . * L # ^ o q O       $ q O                           ",
"                      5 1 5.<.N A l.2.N $.j.9.y._ ) V >.s.H 4 , < ) ` R X   * I $ ^ o P .       % W X                           ",
"                          # 5 5 v 1.-.v v D r.3.} * 0 + 1 2     < [ U O       > . R $ K I O     X Q X                           ",
"                                O $ . . $ # # = O         - : @ k [ } O         & w X L L Q .     . @                           ",
"                                                          : I I U R O             X . O R T ' 2   O                             ",
"                                                      O   o I y P 0                     5 c x 2                                 ",
"                                                      O = n I O o         & & O $ 6 o = c c 6 o                                 ",
"                                                      $ c ^ O               O . | H T P . X                                     ",
"                                                      # <.#                   o ,.,.+ o                                         ",
"                                                      + 2.8                   o y.c.4                                           ",
"                                                      + z.s                     d F.3 ,                                         ",
"                                                      1 K.a                     + u.p.v.d #                                     ",
"                                                    5 i.c.3                       1 e.p.u.M.5                                   ",
"                                                  2 r.F.x.b.4 #                     2 1 # -.=                                   ",
"                                                  2 w.p.a 3 m.4                   % E Y T - o                                   ",
"                                                    1 4 o.%., #                   X L L R .                                     ",
"                                                    . T U ` $                       O O X                                       ",
"                                                      O O *                                                                     ",
"                                                                                                                                ",
"                                                                                                                                ",
"                                                                                                                                ",
"                                                                                                                                ",
"                                                                                                                                ",
"                                                                                                                                ",
"                                                                                                                                ",
"                                                                                                                                ",
"                                                                                                                                ",
"                                                                                                                                ",
"                                                                                                                                ",
"                                                                                                                                ",
"                                                                                                                                ",
"                                                                                                                                ",
"                                                                                                                                ",
"                                                                                                                                ",
"                                                                                                                                ",
"                                                                                                                                ",
"                                                                                                                                ",
"                                                                                                                                "
};
